# Blender 4.1.1
# www.blender.org
g CGC_0001_stater
v 0.009112 0.000557 -0.005376
v 0.008830 0.001911 -0.004051
v 0.009276 0.000375 -0.004246
v 0.008718 -0.001205 -0.003562
v 0.007976 -0.000790 -0.006247
v 0.008024 0.001014 -0.006597
v 0.006657 0.001918 -0.006862
v 0.006321 0.000754 -0.008471
v 0.007520 0.000282 -0.007592
v 0.006880 0.002248 -0.004236
v 0.006488 -0.001355 -0.006391
v 0.004897 0.001682 -0.008999
v 0.005943 -0.000987 -0.008185
v 0.004483 -0.000020 -0.009496
v 0.003339 -0.001292 -0.009228
v 0.002825 0.000666 -0.010201
v 0.001307 0.001506 -0.010104
v 0.000838 0.002484 -0.005777
v 0.004023 -0.000993 -0.003108
v 0.002494 -0.000613 -0.010025
v 0.001126 0.000152 -0.010152
v 0.002895 -0.001288 -0.007657
v 0.000763 0.002682 -0.003568
v -0.000088 -0.001427 -0.009022
v -0.000039 0.000682 -0.010169
v -0.000753 -0.001120 -0.006963
v -0.000458 0.002064 -0.007603
v 0.000723 -0.001141 -0.009825
v -0.000311 -0.000489 -0.003398
v -0.001212 -0.000666 -0.009731
v -0.003196 -0.001502 -0.008543
v -0.003693 -0.000706 -0.009093
v 0.009658 0.000710 -0.002816
v 0.008894 0.002002 -0.002801
v 0.009656 0.001516 -0.000136
v 0.009774 0.000894 -0.001044
v 0.009187 -0.000955 -0.001877
v 0.009370 -0.000181 -0.000842
v 0.009434 -0.000721 0.000516
v 0.009449 0.000575 0.001461
v 0.008363 -0.001319 -0.000632
v 0.006320 0.002497 -0.001015
v 0.008730 -0.001322 0.001507
v 0.008533 0.002136 0.000782
v 0.008593 -0.000568 0.003683
v 0.008892 0.001728 0.002286
v 0.005731 -0.000659 0.000073
v 0.004329 -0.000442 0.002418
v 0.004694 -0.000936 -0.004863
v 0.007751 0.001168 0.005056
v 0.007138 -0.000843 0.005858
v 0.007220 -0.001304 0.004864
v 0.006919 0.001012 0.006217
v 0.006423 -0.001028 0.003528
v 0.004503 -0.000576 -0.001980
v 0.003848 0.002641 0.000909
v 0.004928 -0.000832 0.001079
v 0.006189 0.001834 0.005606
v 0.005174 -0.001018 0.003120
v 0.004417 -0.000849 -0.000856
v 0.005207 -0.001068 0.005416
v 0.002372 -0.000345 -0.002402
v 0.005868 0.000124 0.007291
v 0.003181 -0.000183 -0.000687
v 0.003364 -0.000328 0.004285
v 0.004036 -0.001421 0.005811
v 0.001921 -0.000736 -0.000698
v -0.001755 0.002610 -0.001388
v -0.000415 -0.000089 -0.000938
v 0.000663 -0.000748 0.000653
v -0.002718 0.002293 -0.004236
v -0.005321 0.001353 -0.005561
v -0.001848 -0.000790 -0.004451
v -0.000689 -0.000465 -0.001660
v -0.003823 0.001063 -0.008656
v -0.002624 0.000315 -0.009504
v -0.002530 -0.000766 0.001237
v -0.002885 -0.001052 -0.005647
v -0.001944 -0.000244 -0.001579
v -0.006864 0.000855 -0.006950
v -0.005285 0.001689 -0.002307
v -0.002955 -0.000893 -0.002268
v -0.003947 -0.000747 -0.002909
v -0.004227 -0.001030 -0.000221
v -0.006136 -0.001358 -0.007394
v -0.006316 0.000549 -0.007771
v -0.007134 0.001153 -0.000459
v -0.005428 -0.001189 -0.003037
v -0.006790 0.001052 -0.003735
v -0.006054 -0.001040 0.000355
v -0.007513 -0.001663 -0.005778
v -0.008719 -0.001729 -0.004025
v -0.008933 0.000945 -0.004062
v -0.007260 -0.001274 -0.001155
v -0.008322 0.001129 -0.002990
v -0.008055 -0.000423 -0.006104
v -0.009257 -0.000133 -0.003969
v -0.008968 -0.001783 -0.001513
v -0.008921 0.000945 0.000088
v -0.007808 -0.001439 0.000502
v -0.009444 -0.001590 -0.000447
v -0.010043 0.000486 -0.001312
v -0.009749 -0.001170 -0.002049
v 0.004961 0.000971 0.007364
v 0.001280 0.002266 0.004754
v 0.002875 0.000265 0.009329
v 0.004835 -0.000935 0.007707
v 0.003044 -0.000795 0.002445
v 0.002511 -0.001185 0.006645
v 0.001188 -0.000914 0.003950
v -0.001785 0.002473 0.001288
v -0.001156 0.001120 0.007757
v 0.001507 -0.001134 0.009662
v 0.000982 0.000101 0.001448
v 0.000829 -0.000570 0.006280
v 0.001116 0.001524 0.006134
v -0.003637 -0.000511 0.002004
v 0.002359 0.000968 0.008811
v 0.000357 0.000367 0.010175
v -0.001952 0.002070 0.003417
v -0.001891 -0.000519 0.003557
v -0.001497 0.000910 0.009495
v -0.001349 -0.001364 0.007064
v -0.002276 -0.000876 0.006170
v -0.001673 0.000201 0.010443
v -0.001615 -0.001068 0.007966
v -0.000670 -0.001316 0.009907
v -0.002162 -0.000784 0.004816
v -0.004625 0.001187 0.005283
v -0.003980 -0.001309 0.007440
v -0.004235 -0.000698 0.003631
v -0.002988 -0.001572 0.008253
v -0.003224 -0.001446 0.009771
v -0.006068 0.000777 0.008192
v -0.005128 -0.001220 0.006821
v -0.005550 0.001192 0.003193
v -0.005666 -0.001569 0.001825
v -0.004139 0.000179 0.009623
v -0.005471 -0.001077 0.004457
v -0.004571 -0.000844 0.002430
v -0.006731 -0.001380 0.002483
v -0.006553 -0.001796 0.003808
v -0.005843 -0.001377 0.008222
v -0.007581 -0.001857 0.002476
v -0.006843 -0.000828 0.007669
v -0.008121 0.000744 0.005853
v -0.008162 -0.000482 0.006140
v -0.007178 -0.001741 0.006462
v -0.008367 -0.001544 0.005186
v -0.008911 0.000514 0.004380
v -0.009073 -0.001609 0.003000
v -0.009603 -0.000453 0.002338
v -0.009837 -0.000941 0.000295
v -0.009820 0.000663 0.001399
vn 0.9179 0.0074 -0.3967
vn 0.6194 0.7568 -0.2088
vn 0.9666 -0.1229 -0.2251
vn 0.5844 -0.7970 -0.1526
vn 0.6633 -0.6156 -0.4256
vn 0.7368 0.3829 -0.5573
vn 0.3330 0.8741 -0.3536
vn 0.5893 0.2022 -0.7822
vn 0.7390 -0.0442 -0.6723
vn 0.1204 0.9877 -0.1003
vn 0.1411 -0.9841 -0.1078
vn 0.3247 0.7065 -0.6289
vn 0.4363 -0.6774 -0.5923
vn 0.4324 -0.1870 -0.8821
vn 0.1984 -0.8569 -0.4758
vn 0.2157 0.1362 -0.9669
vn -0.0265 0.6509 -0.7587
vn 0.0068 0.9912 -0.1319
vn -0.0400 -0.9952 0.0893
vn 0.1539 -0.4121 -0.8981
vn -0.0318 -0.1144 -0.9929
vn -0.0157 -0.9962 0.0852
vn -0.0096 0.9981 -0.0615
vn -0.0657 -0.9738 -0.2178
vn -0.1835 0.1609 -0.9698
vn 0.0278 -0.9868 0.1594
vn -0.1218 0.9641 -0.2361
vn -0.0547 -0.6706 -0.7398
vn 0.0737 -0.9883 0.1337
vn -0.1763 -0.4479 -0.8765
vn -0.0928 -0.9272 -0.3629
vn -0.3650 -0.2926 -0.8839
vn 0.9867 0.0678 -0.1479
vn 0.5522 0.8303 -0.0760
vn 0.8623 0.5016 0.0698
vn 0.9985 0.0316 -0.0458
vn 0.7722 -0.6343 -0.0365
vn 0.9767 -0.2139 -0.0169
vn 0.8914 -0.4475 0.0713
vn 0.9662 -0.0188 0.2572
vn 0.1368 -0.9904 0.0221
vn 0.1076 0.9942 -0.0086
vn 0.4689 -0.8747 0.1224
vn 0.3273 0.9415 0.0798
vn 0.8602 -0.3317 0.3872
vn 0.7023 0.6389 0.3141
vn -0.1381 -0.9776 -0.1586
vn -0.1063 -0.9935 -0.0397
vn -0.1082 -0.9878 0.1120
vn 0.6684 0.5580 0.4917
vn 0.6701 -0.4713 0.5734
vn 0.2786 -0.9436 0.1792
vn 0.6442 0.4158 0.6420
vn -0.0951 -0.9954 -0.0152
vn -0.0805 -0.9961 0.0360
vn 0.0449 0.9970 0.0629
vn -0.1707 -0.9790 0.1115
vn 0.2486 0.8942 0.3722
vn -0.3014 -0.9440 -0.1344
vn -0.0802 -0.9959 -0.0427
vn -0.0521 -0.9939 -0.0972
vn -0.0832 -0.9939 0.0730
vn 0.5995 0.0598 0.7981
vn -0.0402 -0.9983 0.0431
vn 0.2447 -0.9615 -0.1250
vn -0.0122 -0.9806 -0.1955
vn 0.0846 -0.9801 -0.1795
vn -0.1407 0.9900 0.0076
vn 0.1284 -0.9880 -0.0855
vn -0.0140 -0.9831 0.1824
vn -0.1997 0.9730 -0.1158
vn -0.2143 0.9675 -0.1344
vn 0.1317 -0.9838 0.1213
vn 0.3116 -0.9434 0.1138
vn -0.3405 0.6899 -0.6388
vn -0.3194 0.1867 -0.9290
vn 0.0713 -0.9772 0.2002
vn 0.0916 -0.9868 0.1333
vn 0.1600 -0.9871 -0.0034
vn -0.5162 0.7293 -0.4490
vn -0.2466 0.9686 -0.0317
vn 0.1876 -0.9818 0.0279
vn 0.0270 -0.9991 0.0328
vn 0.0357 -0.9987 0.0376
vn -0.4346 -0.6351 -0.6386
vn -0.5482 0.3189 -0.7731
vn -0.1777 0.9819 0.0654
vn 0.2509 -0.9652 0.0743
vn -0.1402 0.9851 -0.0996
vn 0.1493 -0.9858 -0.0772
vn -0.3516 -0.8783 -0.3239
vn -0.4928 -0.8299 -0.2614
vn -0.6146 0.7309 -0.2968
vn 0.2347 -0.9690 0.0770
vn -0.1899 0.9803 -0.0541
vn -0.7834 -0.0808 -0.6162
vn -0.9121 -0.0077 -0.4100
vn -0.1823 -0.9832 0.0027
vn -0.4650 0.8833 0.0591
vn 0.2297 -0.9679 -0.1017
vn -0.6563 -0.7532 0.0450
vn -0.8953 0.4259 0.1307
vn -0.8823 -0.4521 -0.1311
vn 0.2984 0.7400 0.6027
vn -0.0759 0.9511 0.2993
vn 0.4463 0.2459 0.8604
vn 0.3955 -0.7200 0.5702
vn 0.1159 -0.9931 -0.0163
vn -0.0861 -0.9949 -0.0524
vn -0.1586 -0.9852 -0.0654
vn -0.1527 0.9838 0.0943
vn -0.0429 0.9857 0.1628
vn 0.2594 -0.7011 0.6642
vn -0.1374 -0.9837 0.1159
vn -0.1406 -0.9856 -0.0942
vn -0.0406 0.9465 0.3202
vn 0.1762 -0.9843 0.0070
vn 0.1721 0.8810 0.4406
vn 0.1644 0.3937 0.9044
vn -0.1706 0.9654 0.1970
vn 0.0649 -0.9869 -0.1479
vn -0.0560 0.9216 0.3840
vn 0.0091 -0.9999 -0.0042
vn 0.0993 -0.9864 -0.1310
vn -0.0832 0.2981 0.9509
vn 0.1025 -0.9928 -0.0616
vn 0.0726 -0.8227 0.5638
vn 0.1042 -0.9845 -0.1408
vn -0.1492 0.9815 0.1202
vn 0.0270 -0.9889 -0.1458
vn 0.1585 -0.9871 -0.0222
vn 0.0939 -0.9861 -0.1369
vn -0.1884 -0.7468 0.6379
vn -0.4677 0.6686 0.5782
vn 0.1241 -0.9872 -0.1007
vn -0.1947 0.9772 0.0847
vn 0.1560 -0.9877 0.0120
vn -0.3934 0.3312 0.8577
vn 0.2830 -0.9587 -0.0288
vn 0.2970 -0.9459 0.1310
vn 0.3248 -0.9356 -0.1383
vn 0.3611 -0.9313 0.0488
vn -0.3446 -0.7643 0.5451
vn 0.1543 -0.9825 -0.1046
vn -0.6921 -0.2072 0.6914
vn -0.6051 0.6969 0.3849
vn -0.8294 -0.0962 0.5503
vn -0.3006 -0.9207 0.2489
vn -0.6023 -0.7311 0.3205
vn -0.8758 0.3484 0.3340
vn -0.6445 -0.7424 0.1828
vn -0.9604 -0.1322 0.2454
vn -0.9626 -0.1146 -0.2455
vn -0.7980 0.6026 -0.0065
vt 0.223895 0.100291
vt 0.214140 0.033602
vt 0.249910 0.083362
vt 0.249371 0.010780
vt 0.277146 0.016190
vt 0.312751 0.056375
vt 0.922070 0.319696
vt 0.957010 0.275766
vt 0.972444 0.343292
vt 0.952222 0.221710
vt 0.908683 0.202381
vt 0.938684 0.142980
vt 0.325324 0.129093
vt 0.909432 0.127788
vt 0.896079 0.063060
vt 0.268762 0.162244
vt 0.369864 0.100527
vt 0.865738 0.119247
vt 0.874420 0.199184
vt 0.380358 0.177232
vt 0.843859 0.030222
vt 0.418635 0.147749
vt 0.300545 0.415374
vt 0.809379 0.069759
vt 0.426817 0.232928
vt 0.208192 0.236121
vt 0.423256 0.300782
vt 0.456186 0.219409
vt 0.344276 0.380709
vt 0.797718 0.138102
vt 0.793853 0.017361
vt 0.389319 0.403613
vt 0.450213 0.291326
vt 0.188849 0.364349
vt 0.834767 0.264628
vt 0.820174 0.339029
vt 0.783421 0.370293
vt 0.482370 0.293961
vt 0.730748 0.070176
vt 0.444964 0.345391
vt 0.750785 0.032310
vt 0.479265 0.390108
vt 0.724830 0.325737
vt 0.715246 0.165743
vt 0.458991 0.457772
vt 0.703786 0.022811
vt 0.441613 0.519715
vt 0.483474 0.510998
vt 0.659748 0.093345
vt 0.645740 0.052456
vt 0.667667 0.225390
vt 0.173945 0.068099
vt 0.978740 0.428394
vt 0.951936 0.437697
vt 0.161710 0.111182
vt 0.933885 0.391763
vt 0.119760 0.112309
vt 0.155090 0.176936
vt 0.966294 0.546425
vt 0.939337 0.495937
vt 0.120980 0.181437
vt 0.913752 0.446568
vt 0.920090 0.536941
vt 0.924393 0.631952
vt 0.067218 0.261266
vt 0.825809 0.574155
vt 0.945385 0.732246
vt 0.890957 0.675403
vt 0.072614 0.339645
vt 0.856480 0.471597
vt 0.893354 0.721528
vt 0.873211 0.622057
vt 0.046221 0.312402
vt 0.847381 0.606233
vt 0.830683 0.387924
vt 0.840183 0.515688
vt 0.921823 0.788172
vt 0.828922 0.435584
vt 0.879720 0.816947
vt 0.848734 0.704304
vt 0.843327 0.808883
vt 0.800474 0.444977
vt 0.037625 0.422355
vt 0.017477 0.376920
vt 0.131497 0.529478
vt 0.809137 0.654740
vt 0.796051 0.577956
vt 0.823705 0.726281
vt 0.278134 0.548638
vt 0.772694 0.445991
vt 0.746969 0.500765
vt 0.724751 0.429387
vt 0.226004 0.593940
vt 0.341577 0.541763
vt 0.716477 0.398636
vt 0.678824 0.525751
vt 0.690911 0.279032
vt 0.391052 0.625356
vt 0.690659 0.402735
vt 0.665840 0.374162
vt 0.431465 0.664177
vt 0.445959 0.632189
vt 0.326514 0.676613
vt 0.644139 0.346972
vt 0.564047 0.222679
vt 0.593269 0.145874
vt 0.640078 0.463570
vt 0.487043 0.658706
vt 0.307830 0.783661
vt 0.655433 0.560438
vt 0.600217 0.491274
vt 0.571692 0.426396
vt 0.610456 0.341804
vt 0.367609 0.713424
vt 0.445437 0.746279
vt 0.391137 0.790361
vt 0.537997 0.184803
vt 0.364834 0.783569
vt 0.538494 0.299414
vt 0.531352 0.410797
vt 0.405503 0.832727
vt 0.560043 0.501983
vt 0.310663 0.868239
vt 0.501996 0.277690
vt 0.508306 0.384491
vt 0.351334 0.875093
vt 0.520285 0.461398
vt 0.566006 0.591189
vt 0.379258 0.923078
vt 0.346815 0.969330
vt 0.323318 0.964442
vt 0.289602 0.922036
vt 0.101175 0.564815
vt 0.031820 0.564027
vt 0.008264 0.552907
vt 0.788872 0.760089
vt 0.767608 0.892106
vt 0.759147 0.648484
vt 0.749800 0.549143
vt 0.810125 0.923355
vt 0.088240 0.690014
vt 0.750694 0.744585
vt 0.694017 0.630311
vt 0.184848 0.638226
vt 0.018565 0.679255
vt 0.751092 0.975544
vt 0.721688 0.903490
vt 0.686288 0.741949
vt 0.687862 0.684807
vt 0.055258 0.740063
vt 0.033164 0.773287
vt 0.706749 0.779022
vt 0.701656 0.819189
vt 0.699241 0.980875
vt 0.220086 0.782013
vt 0.170554 0.781564
vt 0.650050 0.800501
vt 0.667935 0.894846
vt 0.642737 0.633655
vt 0.624566 0.775243
vt 0.127756 0.889392
vt 0.634211 0.581264
vt 0.671559 0.835346
vt 0.608568 0.556170
vt 0.077397 0.858316
vt 0.637072 0.951609
vt 0.615481 0.671943
vt 0.587239 0.587054
vt 0.610107 0.839098
vt 0.587660 0.645026
vt 0.578743 0.763689
vt 0.131190 0.968935
vt 0.580898 0.833052
vt 0.552774 0.710968
vt 0.188705 0.931487
vt 0.179333 0.986369
vt 0.542716 0.773137
vt 0.534731 0.618038
vt 0.225487 0.941856
vt 0.276198 0.975120
vt 0.504203 0.500986
vt 0.501996 0.712920
vt 0.503373 0.602647
s 1
f 34/1/34 33/2/33 2/3/2
f 33/2/33 3/4/3 2/3/2
f 3/4/3 1/5/1 2/3/2
f 6/6/6 2/3/2 1/5/1
f 4/7/4 3/8/3 33/9/33
f 1/10/1 3/8/3 5/11/5
f 1/10/1 5/11/5 6/12/6
f 5/11/5 3/8/3 4/7/4
f 6/6/6 7/13/7 2/3/2
f 6/12/6 5/11/5 9/14/9
f 9/14/9 8/15/8 6/12/6
f 34/1/34 2/3/2 10/16/10
f 7/13/7 6/6/6 8/17/8
f 7/13/7 10/16/10 2/3/2
f 8/15/8 9/14/9 13/18/13
f 11/19/11 5/11/5 4/7/4
f 13/18/13 9/14/9 5/11/5
f 7/13/7 8/17/8 12/20/12
f 11/19/11 13/18/13 5/11/5
f 14/21/14 8/15/8 13/18/13
f 12/20/12 8/17/8 14/22/14
f 10/16/10 7/13/7 23/23/23
f 14/21/14 13/18/13 15/24/15
f 12/20/12 14/22/14 16/25/16
f 11/19/11 15/24/15 13/18/13
f 12/20/12 23/23/23 7/13/7
f 42/26/42 10/16/10 23/23/23
f 12/20/12 16/25/16 17/27/17
f 16/25/16 14/22/14 20/28/20
f 23/23/23 12/20/12 18/29/18
f 15/24/15 11/19/11 22/30/22
f 18/29/18 12/20/12 17/27/17
f 20/31/20 14/21/14 15/24/15
f 18/29/18 17/27/17 27/32/27
f 20/28/20 21/33/21 16/25/16
f 56/34/56 42/26/42 23/23/23
f 17/27/17 16/25/16 21/33/21
f 49/35/49 19/36/19 62/37/62
f 20/28/20 28/38/28 21/33/21
f 15/24/15 22/30/22 24/39/24
f 22/30/22 11/19/11 49/35/49
f 17/27/17 21/33/21 25/40/25
f 20/31/20 15/24/15 28/41/28
f 15/24/15 24/39/24 28/41/28
f 25/40/25 21/33/21 28/38/28
f 28/38/28 30/42/30 25/40/25
f 22/30/22 49/35/49 29/43/29
f 22/30/22 26/44/26 24/39/24
f 22/30/22 29/43/29 26/44/26
f 49/35/49 62/37/62 29/43/29
f 30/42/30 76/45/76 25/40/25
f 17/27/17 25/40/25 76/45/76
f 30/46/30 28/41/28 24/39/24
f 27/32/27 17/27/17 75/47/75
f 76/45/76 30/42/30 32/48/32
f 30/46/30 24/39/24 31/49/31
f 31/49/31 24/39/24 26/44/26
f 75/47/75 17/27/17 76/45/76
f 32/50/32 30/46/30 31/49/31
f 78/51/78 31/49/31 26/44/26
f 36/52/36 33/2/33 34/1/34
f 33/9/33 36/53/36 38/54/38
f 34/1/34 35/55/35 36/52/36
f 37/56/37 33/9/33 38/54/38
f 36/52/36 35/55/35 40/57/40
f 33/9/33 37/56/37 4/7/4
f 35/55/35 34/1/34 44/58/44
f 36/53/36 40/59/40 38/54/38
f 44/58/44 34/1/34 42/26/42
f 40/59/40 39/60/39 38/54/38
f 39/60/39 37/56/37 38/54/38
f 40/57/40 35/55/35 46/61/46
f 44/58/44 46/61/46 35/55/35
f 37/56/37 39/60/39 41/62/41
f 39/60/39 43/63/43 41/62/41
f 4/7/4 37/56/37 41/62/41
f 40/59/40 43/63/43 39/60/39
f 4/7/4 41/62/41 11/19/11
f 45/64/45 43/63/43 40/59/40
f 50/65/50 40/57/40 46/61/46
f 43/63/43 48/66/48 41/62/41
f 45/64/45 40/59/40 50/67/50
f 49/35/49 11/19/11 41/62/41
f 43/63/43 45/64/45 52/68/52
f 46/61/46 44/58/44 58/69/58
f 47/70/47 49/35/49 41/62/41
f 45/64/45 50/67/50 51/71/51
f 45/64/45 51/71/51 52/68/52
f 43/63/43 52/68/52 54/72/54
f 50/65/50 46/61/46 53/73/53
f 53/73/53 46/61/46 58/69/58
f 59/74/59 43/63/43 54/72/54
f 42/26/42 56/34/56 44/58/44
f 49/35/49 47/70/47 55/75/55
f 44/58/44 56/34/56 58/69/58
f 47/70/47 41/62/41 57/76/57
f 51/71/51 50/67/50 53/77/53
f 55/75/55 47/70/47 60/78/60
f 59/74/59 48/66/48 43/63/43
f 51/71/51 53/77/53 63/79/63
f 60/78/60 47/70/47 57/76/57
f 54/72/54 52/68/52 61/80/61
f 41/62/41 48/66/48 57/76/57
f 52/68/52 51/71/51 107/81/107
f 62/37/62 19/36/19 55/75/55
f 61/80/61 52/68/52 107/81/107
f 51/71/51 63/79/63 107/81/107
f 57/76/57 64/82/64 60/78/60
f 53/73/53 58/69/58 104/83/104
f 63/84/63 53/73/53 104/83/104
f 54/72/54 61/80/61 59/74/59
f 57/76/57 48/66/48 64/82/64
f 55/75/55 60/78/60 62/37/62
f 58/69/58 56/34/56 105/85/105
f 48/66/48 61/80/61 65/86/65
f 108/87/108 64/82/64 48/66/48
f 108/87/108 48/66/48 65/86/65
f 61/80/61 107/81/107 66/88/66
f 62/37/62 60/78/60 64/82/64
f 56/34/56 23/23/23 68/89/68
f 67/90/67 64/82/64 108/87/108
f 65/86/65 61/80/61 66/88/66
f 67/90/67 108/87/108 70/91/70
f 64/82/64 67/90/67 62/37/62
f 29/43/29 62/37/62 69/92/69
f 68/89/68 111/93/111 56/34/56
f 18/29/18 71/94/71 23/23/23
f 74/95/74 29/43/29 69/92/69
f 67/90/67 77/96/77 69/92/69
f 23/23/23 71/94/71 68/89/68
f 29/43/29 74/95/74 73/97/73
f 67/90/67 70/91/70 77/96/77
f 71/94/71 27/32/27 72/98/72
f 73/97/73 74/95/74 79/99/79
f 74/95/74 69/92/69 77/96/77
f 73/97/73 79/99/79 82/100/82
f 78/51/78 73/97/73 82/100/82
f 76/45/76 32/48/32 75/47/75
f 72/98/72 75/47/75 80/101/80
f 75/47/75 32/48/32 86/102/86
f 68/89/68 71/94/71 81/103/81
f 79/99/79 74/95/74 77/96/77
f 83/104/83 78/51/78 82/100/82
f 72/98/72 81/103/81 71/94/71
f 31/49/31 78/51/78 91/105/91
f 79/99/79 77/96/77 82/100/82
f 80/101/80 75/47/75 86/102/86
f 32/50/32 31/49/31 85/106/85
f 83/104/83 82/100/82 84/107/84
f 31/49/31 91/105/91 85/106/85
f 111/93/111 68/89/68 81/103/81
f 32/48/32 85/108/85 86/102/86
f 82/100/82 77/96/77 84/107/84
f 111/93/111 81/103/81 87/109/87
f 78/51/78 83/104/83 91/105/91
f 117/110/117 90/111/90 84/107/84
f 94/112/94 88/113/88 83/104/83
f 81/103/81 72/98/72 89/114/89
f 86/102/86 85/108/85 96/115/96
f 83/104/83 88/113/88 91/105/91
f 89/114/89 72/98/72 93/116/93
f 86/102/86 96/115/96 80/101/80
f 90/111/90 94/112/94 83/104/83
f 85/106/85 91/105/91 96/117/96
f 93/116/93 72/98/72 80/101/80
f 81/103/81 89/114/89 95/118/95
f 87/109/87 81/103/81 95/118/95
f 93/116/93 80/101/80 96/115/96
f 89/114/89 93/116/93 95/118/95
f 92/119/92 88/113/88 98/120/98
f 97/121/97 93/116/93 96/115/96
f 98/120/98 88/113/88 94/112/94
f 96/117/96 91/105/91 92/119/92
f 94/112/94 90/111/90 100/122/100
f 98/120/98 94/112/94 100/122/100
f 87/109/87 95/118/95 99/123/99
f 96/117/96 92/119/92 97/124/97
f 92/119/92 103/125/103 97/124/97
f 95/118/95 93/116/93 102/126/102
f 99/123/99 95/118/95 102/126/102
f 98/120/98 103/125/103 92/119/92
f 98/120/98 100/122/100 101/127/101
f 144/128/144 101/127/101 100/122/100
f 97/121/97 102/126/102 93/116/93
f 102/126/102 97/121/97 103/129/103
f 99/123/99 102/126/102 101/130/101
f 103/125/103 98/120/98 101/127/101
f 99/123/99 101/130/101 153/131/153
f 101/130/101 102/126/102 103/129/103
f 154/132/154 99/123/99 153/131/153
f 104/83/104 105/85/105 116/133/116
f 104/83/104 118/134/118 106/135/106
f 118/134/118 104/83/104 116/133/116
f 66/88/66 107/81/107 109/136/109
f 105/85/105 56/34/56 111/93/111
f 109/136/109 107/81/107 113/137/113
f 108/87/108 110/138/110 114/139/114 70/91/70
f 106/140/106 113/137/113 107/81/107
f 112/141/112 118/134/118 116/133/116
f 108/87/108 109/136/109 110/138/110
f 110/138/110 109/136/109 115/142/115
f 115/142/115 121/143/121 110/138/110
f 121/143/121 117/110/117 114/139/114
f 120/144/120 105/85/105 111/93/111
f 106/135/106 118/134/118 119/145/119
f 113/137/113 106/140/106 119/146/119
f 109/136/109 113/137/113 127/147/127
f 105/85/105 120/144/120 116/133/116
f 124/148/124 128/149/128 115/142/115
f 114/139/114 117/110/117 70/91/70
f 112/141/112 122/150/122 118/134/118
f 109/136/109 127/147/127 115/142/115
f 118/134/118 122/150/122 119/145/119
f 113/137/113 119/146/119 127/147/127
f 116/133/116 120/144/120 112/141/112
f 77/96/77 70/91/70 117/110/117
f 119/145/119 122/150/122 125/151/125
f 115/142/115 123/152/123 124/148/124
f 127/147/127 126/153/126 115/142/115
f 115/142/115 126/153/126 123/152/123
f 127/147/127 119/146/119 125/154/125
f 136/155/136 111/93/111 87/109/87
f 112/141/112 120/144/120 129/156/129
f 84/107/84 77/96/77 117/110/117
f 128/149/128 124/148/124 130/157/130
f 124/148/124 123/152/123 126/153/126
f 111/93/111 136/155/136 120/144/120
f 133/158/133 127/147/127 125/154/125
f 129/156/129 120/144/120 136/155/136
f 128/149/128 131/159/131 121/143/121
f 130/157/130 135/160/135 128/149/128
f 122/150/122 112/141/112 134/161/134
f 117/110/117 121/143/121 140/162/140
f 133/158/133 126/153/126 127/147/127
f 140/162/140 121/143/121 131/159/131
f 133/158/133 132/163/132 126/153/126
f 117/110/117 140/162/140 137/164/137
f 126/153/126 132/163/132 130/157/130
f 124/148/124 126/153/126 130/157/130
f 131/159/131 128/149/128 135/160/135
f 125/151/125 122/150/122 138/165/138
f 134/161/134 138/165/138 122/150/122
f 133/158/133 125/154/125 138/166/138
f 139/167/139 140/162/140 131/159/131
f 112/141/112 129/156/129 134/161/134
f 130/157/130 132/163/132 133/158/133
f 141/168/141 140/162/140 139/167/139
f 140/162/140 141/168/141 137/164/137
f 139/167/139 131/159/131 135/160/135
f 141/168/141 90/111/90 137/164/137
f 133/158/133 143/169/143 130/157/130
f 141/168/141 139/167/139 142/170/142
f 148/171/148 139/167/139 135/160/135
f 129/156/129 136/155/136 134/161/134
f 143/169/143 133/158/133 138/166/138
f 141/168/141 142/170/142 144/128/144
f 138/165/138 134/161/134 145/172/145
f 143/169/143 138/166/138 145/173/145
f 142/170/142 139/167/139 149/174/149
f 135/160/135 130/157/130 143/169/143
f 148/171/148 135/160/135 143/169/143
f 139/167/139 148/171/148 149/174/149
f 154/132/154 146/175/146 136/155/136
f 134/161/134 136/155/136 146/175/146
f 147/176/147 145/172/145 134/161/134
f 149/174/149 144/128/144 142/170/142
f 134/161/134 146/175/146 147/176/147
f 143/169/143 145/173/145 148/171/148
f 147/177/147 148/171/148 145/173/145
f 101/127/101 144/128/144 151/178/151
f 144/128/144 149/174/149 151/178/151
f 146/175/146 154/132/154 150/179/150
f 146/175/146 150/179/150 147/176/147
f 154/132/154 152/180/152 150/179/150
f 151/178/151 153/181/153 101/127/101
f 149/174/149 148/171/148 147/177/147
f 147/177/147 150/182/150 149/174/149
f 150/182/150 152/183/152 149/174/149
f 151/178/151 152/183/152 153/181/153
f 149/174/149 152/183/152 151/178/151
f 72/98/72 27/32/27 75/47/75
f 73/97/73 26/44/26 29/43/29
f 26/44/26 73/97/73 78/51/78
f 42/26/42 34/1/34 10/16/10
f 49/35/49 55/75/55 19/36/19
f 105/85/105 104/83/104 58/69/58
f 63/79/63 106/140/106 107/81/107
f 65/86/65 66/88/66 109/136/109
f 18/29/18 27/32/27 71/94/71
f 153/131/153 152/180/152 154/132/154
f 63/84/63 104/83/104 106/135/106
f 108/87/108 65/86/65 109/136/109
f 117/110/117 137/164/137 90/111/90
f 141/168/141 100/122/100 90/111/90
f 144/128/144 100/122/100 141/168/141
f 136/155/136 87/109/87 154/132/154
f 87/109/87 99/123/99 154/132/154
f 90/111/90 83/104/83 84/107/84
f 67/90/67 69/92/69 62/37/62
f 121/143/121 114/139/114 110/138/110
f 128/149/128 121/143/121 115/142/115
f 61/80/61 48/66/48 59/74/59
f 88/113/88 92/119/92 91/105/91
