# Blender 4.1.1
# www.blender.org
g CIU_0003_nail.006
v -0.000439 0.002709 -0.018987
v 0.002353 0.000592 -0.018352
v -0.002606 0.000516 -0.017427
v 0.002205 0.000403 -0.022365
v -0.000543 0.002616 -0.023269
v -0.002662 0.000306 -0.022752
v 0.002537 0.000537 -0.015546
v 0.000163 -0.001939 -0.017801
v 0.000200 -0.001810 -0.021729
v -0.000589 0.002271 -0.029498
v -0.002515 0.000292 -0.026494
v 0.002089 0.000349 -0.027493
v 0.002079 0.000238 -0.026220
v 0.001958 0.000019 -0.029388
v -0.002398 0.000182 -0.031254
v 0.000135 -0.001888 -0.027173
v 0.000450 -0.002049 -0.030283
v -0.000940 0.001750 -0.035684
v -0.002118 0.000307 -0.037112
v -0.001215 0.001180 -0.040852
v 0.001720 -0.000688 -0.037663
v 0.001983 0.000133 -0.031506
v 0.001775 -0.000368 -0.035157
v 0.000496 -0.002125 -0.034705
v -0.001608 0.000782 -0.043847
v -0.002048 0.000146 -0.043457
v -0.001403 -0.000014 -0.044784
v -0.000201 -0.000676 -0.045078
v 0.001514 -0.001291 -0.041279
v 0.000561 -0.002269 -0.039350
v 0.000857 -0.002287 -0.043273
v 0.001458 -0.001700 -0.043730
v 0.000574 -0.001894 -0.044810
v -0.000626 0.003990 0.030342
v -0.000838 0.002655 0.030556
v 0.001858 0.002821 0.030187
v -0.003343 -0.000116 0.030455
v -0.002733 -0.001487 0.030893
v -0.000239 -0.001720 0.031350
v 0.002493 0.000647 0.030832
v 0.003089 -0.002213 0.030165
v 0.003073 -0.001238 0.030064
v 0.000362 -0.003350 0.030407
v 0.000369 0.003434 0.029120
v 0.000685 0.003201 0.029800
v 0.001492 0.000720 0.028579
v 0.002781 0.002509 0.029445
v -0.002089 0.003484 0.029358
v -0.004060 0.001685 0.028696
v -0.002906 0.000628 0.028395
v -0.004404 -0.000314 0.029273
v -0.004586 -0.001220 0.028701
v -0.004419 -0.002420 0.029715
v -0.002818 -0.003677 0.029303
v -0.001555 0.002283 0.028489
v -0.000479 0.002444 0.027032
v 0.001301 0.002021 0.029527
v -0.000372 0.002772 0.023362
v -0.002632 -0.000027 0.024066
v 0.002657 0.000662 0.029759
v 0.002398 0.000023 0.029416
v 0.002554 -0.001509 0.028853
v 0.002622 -0.000463 0.026531
v 0.002645 0.000081 0.023982
v 0.000759 -0.002353 0.024871
v -0.003281 -0.000722 0.028646
v -0.002745 0.000079 0.026495
v -0.001621 -0.001504 0.028180
v 0.000658 -0.002956 0.028669
v 0.002474 -0.003797 0.029413
v -0.000510 -0.004611 0.029206
v 0.001176 -0.004528 0.029306
v -0.002461 0.000014 0.020015
v -0.000655 0.002579 0.018069
v -0.000013 0.002927 0.020884
v -0.002270 0.000207 0.014381
v 0.000189 0.003052 0.016410
v -0.002445 0.000423 0.017121
v 0.002818 0.000546 0.018451
v 0.002160 -0.000776 0.018288
v 0.002781 0.000237 0.011481
v 0.000897 -0.002315 0.020911
v 0.000728 -0.002219 0.018071
v 0.000906 -0.002115 0.014790
v 0.000059 0.003039 0.010906
v -0.002350 0.000200 0.007916
v 0.000276 0.003035 0.006325
v -0.002238 0.000323 0.005250
v 0.000878 -0.002051 0.009456
v 0.002786 0.000829 0.009823
v -0.001788 -0.000161 0.011332
v 0.000333 0.002918 0.001706
v 0.003041 0.000558 0.005029
v -0.002210 0.000075 -0.002423
v 0.002927 0.000477 0.000510
v 0.000786 -0.002130 -0.000605
v -0.001949 -0.000177 0.002108
v 0.000821 -0.002168 0.004441
v 0.000180 0.002670 -0.002285
v -0.002194 0.000203 -0.008092
v 0.000016 0.002539 -0.007826
v 0.002719 0.000583 -0.004449
v -0.000864 -0.001188 -0.004908
v 0.000467 -0.002171 -0.008136
v 0.002801 0.000440 -0.009793
v -0.002379 0.000215 -0.011970
v -0.000119 0.002555 -0.015989
v 0.000296 -0.002056 -0.012542
vn 0.9930 0.0896 -0.0776
vn 0.9849 0.1729 0.0102
vn 0.0384 0.9980 0.0495
vn -0.0610 0.9966 0.0553
vn -0.9992 -0.0179 -0.0353
vn -0.9963 -0.0086 0.0854
vn 0.9932 0.1098 -0.0387
vn -0.0760 0.9971 0.0091
vn -0.9952 -0.0979 0.0056
vn 0.1197 -0.9923 -0.0328
vn 0.1393 -0.9897 0.0328
vn 0.0520 -0.9962 -0.0699
vn 0.9360 0.3516 0.0189
vn -0.9969 -0.0752 0.0221
vn -0.1303 0.9914 -0.0076
vn -0.9956 -0.0874 0.0337
vn 0.8718 -0.4874 -0.0495
vn 0.0994 -0.9920 0.0772
vn 0.8866 -0.4586 0.0611
vn 0.1779 -0.9809 0.0792
vn -0.9978 -0.0493 0.0435
vn -0.1347 0.9827 -0.1272
vn 0.9849 0.1415 -0.0994
vn -0.0627 0.9969 -0.0466
vn 0.9693 0.2434 -0.0349
vn 0.9798 0.2002 -0.0040
vn 0.0716 -0.9954 0.0642
vn 0.0921 -0.9924 0.0821
vn -0.9911 -0.1164 -0.0641
vn -0.3688 0.8687 -0.3306
vn -0.6497 0.1609 -0.7430
vn 0.1277 0.3964 -0.9092
vn 0.9906 0.1262 -0.0533
vn 0.9228 0.0007 -0.3852
vn 0.0137 -0.5694 -0.8219
vn 0.1187 -0.9926 0.0259
vn -0.0279 0.7531 0.6573
vn -0.0823 0.3405 0.9366
vn 0.3857 0.8949 0.2243
vn 0.2660 0.7825 0.5630
vn -0.5162 0.1622 0.8409
vn -0.2964 -0.1164 0.9480
vn -0.0254 -0.1370 0.9902
vn 0.6390 0.2334 0.7329
vn 0.6854 0.6200 -0.3819
vn 0.9128 -0.2037 0.3541
vn 0.9707 0.2384 -0.0291
vn 0.9181 0.1429 -0.3698
vn -0.7528 -0.6029 0.2643
vn -0.4741 -0.8742 -0.1049
vn 0.1067 -0.5343 0.8385
vn 0.3328 0.8493 -0.4098
vn -0.4790 0.8770 -0.0383
vn 0.6873 0.6857 -0.2397
vn 0.3641 0.4093 -0.8366
vn -0.8855 0.3743 -0.2753
vn -0.9390 0.3384 0.0618
vn -0.7319 0.2241 -0.6435
vn -0.5140 -0.1997 -0.8342
vn -0.7648 0.1368 -0.6295
vn -0.4662 0.6579 -0.5915
vn -0.0100 0.9846 -0.1745
vn -0.9922 -0.1237 0.0135
vn -0.8939 -0.4395 -0.0876
vn -0.1712 0.9777 0.1214
vn 0.9894 0.0846 -0.1181
vn -0.9825 -0.1757 0.0616
vn 0.7754 0.4200 -0.4715
vn 0.9186 -0.1126 -0.3788
vn 0.7527 -0.6397 -0.1558
vn 0.9790 0.1933 0.0653
vn 0.1931 -0.9731 -0.1253
vn -0.5808 -0.7722 -0.2574
vn -0.2728 -0.9390 -0.2092
vn 0.0684 -0.6562 -0.7515
vn 0.1609 -0.9855 0.0529
vn 0.2680 -0.9612 -0.0656
vn -0.7079 0.7059 0.0219
vn 0.0787 0.9957 0.0479
vn -0.9985 -0.0507 0.0206
vn -0.0310 0.9991 0.0303
vn -0.9967 -0.0731 0.0359
vn 0.9600 0.2630 0.0962
vn 0.8556 -0.5177 0.0014
vn 0.9362 -0.3483 0.0479
vn 0.2005 -0.9726 -0.1178
vn -0.0065 -1.0000 0.0031
vn -0.1419 0.9885 0.0526
vn 0.9602 0.2793 0.0091
vn -0.9883 -0.1208 0.0930
vn -0.5911 -0.8018 0.0883
vn 0.2139 -0.9755 0.0518
vn -0.0975 0.9942 -0.0457
vn -0.9581 0.2861 0.0157
vn 0.9928 0.1115 -0.0443
vn -0.0309 0.9993 0.0210
vn -0.9979 -0.0385 0.0520
vn -0.7191 -0.6894 0.0875
vn 0.1712 -0.9851 0.0157
vn 0.9901 0.1402 -0.0050
vn -0.0677 0.9974 0.0240
vn 0.1693 -0.9839 0.0566
vn -0.1235 0.9923 -0.0056
vn -0.9944 0.0469 0.0947
vn 0.6036 0.7973 0.0048
vn 0.9914 0.1311 -0.0003
vn -0.6351 -0.7705 0.0550
vn 0.1189 -0.9913 -0.0566
vt 0.549169 0.362399
vt 0.582659 0.359146
vt 0.557570 0.520359
vt 0.593243 0.521459
vt 0.511198 0.685594
vt 0.577011 0.671636
vt 0.630793 0.346947
vt 0.643249 0.514272
vt 0.640225 0.663593
vt 0.576082 0.199203
vt 0.623462 0.203459
vt 0.572914 0.021290
vt 0.636750 0.033579
vt 0.513303 0.200099
vt 0.691595 0.347958
vt 0.684848 0.643109
vt 0.716051 0.498866
vt 0.740637 0.613100
vt 0.676608 0.341491
vt 0.688983 0.205017
vt 0.713745 0.333515
vt 0.680969 0.042263
vt 0.736858 0.048016
vt 0.725337 0.216861
vt 0.807064 0.557056
vt 0.787141 0.483658
vt 0.807763 0.319925
vt 0.844032 0.462644
vt 0.737812 0.341196
vt 0.779834 0.327196
vt 0.807182 0.064405
vt 0.776222 0.225938
vt 0.827879 0.241905
vt 0.876018 0.486945
vt 0.875046 0.449820
vt 0.887231 0.431153
vt 0.889954 0.358366
vt 0.845949 0.308203
vt 0.868041 0.305448
vt 0.880191 0.123453
vt 0.892854 0.171101
vt 0.881994 0.291428
vt 0.892497 0.236887
vt 0.865765 0.273536
vt 0.883843 0.685170
vt 0.901060 0.694941
vt 0.887057 0.766706
vt 0.892016 0.828554
vt 0.941699 0.619075
vt 0.954282 0.667609
vt 0.949431 0.776222
vt 0.917570 0.870140
vt 0.890593 0.890241
vt 0.948318 0.941280
vt 0.936245 0.934108
vt 0.912684 0.916150
vt 0.972233 0.588952
vt 0.986323 0.678952
vt 0.968007 0.822766
vt 0.759987 0.809406
vt 0.776963 0.764937
vt 0.778137 0.888295
vt 0.771327 0.733559
vt 0.800066 0.698673
vt 0.777261 0.628691
vt 0.784754 0.698654
vt 0.882765 0.877706
vt 0.894086 0.601752
vt 0.922291 0.521508
vt 0.947674 0.547497
vt 0.809963 0.964677
vt 0.820103 0.894649
vt 0.836501 0.966080
vt 0.837588 0.898153
vt 0.849119 0.951045
vt 0.960153 0.527341
vt 0.797234 0.844945
vt 0.004800 0.605879
vt 0.037795 0.625667
vt 0.020668 0.696111
vt 0.083030 0.782203
vt 0.019448 0.476812
vt 0.026608 0.804053
vt 0.052233 0.807694
vt 0.088584 0.606745
vt 0.043723 0.390053
vt 0.130436 0.768971
vt 0.800414 0.625575
vt 0.809761 0.638149
vt 0.008442 0.425963
vt 0.821490 0.574997
vt 0.828322 0.626971
vt 0.852617 0.586307
vt 0.013411 0.351075
vt 0.077452 0.402388
vt 0.063466 0.245819
vt 0.871685 0.830045
vt 0.027289 0.877615
vt 0.018936 0.021291
vt 0.046541 0.029005
vt 0.023512 0.109734
vt 0.983377 0.521508
vt 0.873691 0.711780
vt 0.849951 0.686825
vt 0.075071 0.041737
vt 0.113422 0.245357
vt 0.015573 0.237093
vt 0.971472 0.935264
vt 0.939012 0.973069
vt 0.990345 0.800740
vt 0.983829 0.880210
vt 0.866272 0.635061
vt 0.152497 0.619738
vt 0.118852 0.586416
vt 0.164695 0.750336
vt 0.172027 0.572885
vt 0.197562 0.748275
vt 0.145984 0.405463
vt 0.146769 0.333378
vt 0.229081 0.372706
vt 0.187959 0.235356
vt 0.123885 0.046678
vt 0.158903 0.033261
vt 0.147993 0.234311
vt 0.192038 0.044266
vt 0.237489 0.567930
vt 0.249506 0.396672
vt 0.274599 0.740302
vt 0.270303 0.034761
vt 0.229143 0.070565
vt 0.252815 0.227394
vt 0.291704 0.554807
vt 0.306262 0.727983
vt 0.306423 0.382603
vt 0.345610 0.545777
vt 0.397684 0.711797
vt 0.302214 0.030470
vt 0.393880 0.038911
vt 0.339817 0.057089
vt 0.312650 0.218926
vt 0.359024 0.377750
vt 0.393065 0.543207
vt 0.372206 0.216974
vt 0.459713 0.537608
vt 0.465114 0.689976
vt 0.418075 0.382583
vt 0.481120 0.368778
vt 0.423419 0.126470
vt 0.461288 0.036421
vt 0.461384 0.204831
vt 0.507361 0.031640
s 1
f 7/1/1 2/2/2 107/3/3
f 107/3/3 2/2/2 1/4/4
f 1/4/4 106/5/5 107/3/3
f 106/5/5 1/4/4 3/6/6
f 1/4/4 4/7/7 5/8/8
f 2/2/2 4/7/7 1/4/4
f 1/4/4 5/8/8 3/6/6
f 3/6/6 5/8/8 6/9/9
f 7/1/1 8/10/10 2/2/2
f 2/2/2 8/10/10 9/11/11
f 9/11/11 4/7/7 2/2/2
f 3/12/6 6/13/9 8/10/10
f 6/13/9 9/11/11 8/10/10
f 108/14/12 8/10/10 7/1/1
f 5/8/8 4/7/7 12/15/13
f 5/8/8 11/16/14 6/9/9
f 5/8/8 10/17/15 11/16/14
f 12/15/13 10/17/15 5/8/8
f 10/17/15 15/18/16 11/16/14
f 13/19/17 12/15/13 4/7/7
f 4/7/7 16/20/18 13/19/17
f 13/19/17 14/21/19 12/15/13
f 6/13/9 11/22/14 9/11/11
f 11/22/14 16/20/18 9/11/11
f 15/23/16 16/20/18 11/22/14
f 4/7/7 9/11/11 16/20/18
f 13/19/17 16/20/18 17/24/20
f 13/19/17 17/24/20 14/21/19
f 15/23/16 17/24/20 16/20/18
f 10/17/15 19/25/21 15/18/16
f 10/17/15 18/26/22 19/25/21
f 18/26/22 21/27/23 20/28/24
f 22/29/25 10/17/15 12/15/13
f 14/21/19 22/29/25 12/15/13
f 14/21/19 17/24/20 22/29/25
f 10/17/15 23/30/26 18/26/22
f 10/17/15 22/29/25 23/30/26
f 22/29/25 17/24/20 23/30/26
f 18/26/22 23/30/26 21/27/23
f 19/31/21 24/32/27 15/23/16
f 15/23/16 24/32/27 17/24/20
f 17/24/20 24/32/27 23/30/26
f 24/32/27 21/27/23 23/30/26
f 24/32/27 30/33/28 21/27/23
f 18/26/22 20/28/24 19/25/21
f 20/28/24 26/34/29 19/25/21
f 20/28/24 25/35/30 26/34/29
f 25/35/30 27/36/31 26/34/29
f 20/28/24 28/37/32 25/35/30
f 25/35/30 28/37/32 27/36/31
f 20/28/24 21/27/23 29/38/33
f 20/28/24 32/39/34 28/37/32
f 29/38/33 32/39/34 20/28/24
f 24/32/27 19/31/21 30/33/28
f 19/31/21 26/40/29 30/33/28
f 26/40/29 27/41/31 33/42/35
f 28/43/32 33/42/35 27/41/31
f 30/33/28 29/38/33 21/27/23
f 29/38/33 30/33/28 31/44/36
f 26/40/29 31/44/36 30/33/28
f 29/38/33 31/44/36 32/39/34
f 33/42/35 31/44/36 26/40/29
f 32/39/34 31/44/36 33/42/35
f 28/37/32 32/39/34 33/42/35
f 34/45/37 35/46/38 45/47/39
f 45/47/39 35/46/38 36/48/40
f 37/49/41 38/50/42 35/46/38
f 35/46/38 38/50/42 39/51/43
f 36/48/40 40/52/44 47/53/45
f 35/46/38 40/52/44 36/48/40
f 35/46/38 39/51/43 40/52/44
f 39/51/43 41/54/46 40/52/44
f 40/52/44 42/55/47 60/56/48
f 40/52/44 41/54/46 42/55/47
f 53/57/49 54/58/50 38/50/42
f 38/50/42 54/58/50 39/51/43
f 39/51/43 43/59/51 41/54/46
f 34/60/37 44/61/52 48/62/53
f 34/60/37 45/63/39 44/61/52
f 45/63/39 46/64/54 44/61/52
f 45/63/39 47/65/45 57/66/55
f 36/48/40 47/67/45 45/47/39
f 48/68/53 49/69/56 37/49/41
f 37/49/41 49/69/56 51/70/57
f 49/71/56 50/72/58 51/73/57
f 51/73/57 66/74/59 52/75/60
f 37/49/41 51/70/57 53/57/49
f 51/70/57 52/76/60 53/57/49
f 48/68/53 35/46/38 34/45/37
f 49/71/56 48/62/53 55/77/61
f 48/62/53 44/61/52 55/77/61
f 44/78/52 56/79/62 55/80/61
f 56/79/62 59/81/63 55/80/61
f 45/63/39 57/66/55 46/64/54
f 56/79/62 44/78/52 46/82/54
f 48/68/53 37/49/41 35/46/38
f 49/71/56 55/77/61 50/72/58
f 55/80/61 59/81/63 50/83/58
f 50/83/58 59/81/63 67/84/64
f 56/79/62 58/85/65 59/81/63
f 56/79/62 63/86/66 58/85/65
f 58/85/65 73/87/67 59/81/63
f 47/65/45 60/88/48 57/66/55
f 60/88/48 61/89/68 57/66/55
f 61/89/68 46/64/54 57/66/55
f 40/52/44 60/56/48 47/53/45
f 46/82/54 63/86/66 56/79/62
f 61/90/68 63/86/66 46/82/54
f 60/88/48 42/91/47 61/89/68
f 61/89/68 42/91/47 62/92/69
f 42/91/47 70/93/70 62/92/69
f 61/90/68 62/94/69 63/86/66
f 63/86/66 64/95/71 58/85/65
f 64/95/71 63/86/66 65/96/72
f 50/72/58 66/74/59 51/73/57
f 66/74/59 54/97/50 52/75/60
f 50/83/58 67/84/64 66/98/59
f 66/99/59 67/100/64 68/101/73
f 37/49/41 53/57/49 38/50/42
f 52/102/60 54/58/50 53/57/49
f 66/74/59 71/103/74 54/97/50
f 66/74/59 69/104/75 71/103/74
f 68/101/73 67/100/64 65/96/72
f 59/105/63 65/96/72 67/100/64
f 59/105/63 82/106/76 65/96/72
f 65/96/72 63/86/66 69/107/75
f 62/94/69 69/107/75 63/86/66
f 41/54/46 70/108/70 42/109/47
f 43/59/51 70/108/70 41/54/46
f 62/92/69 70/93/70 69/104/75
f 68/101/73 69/107/75 66/99/59
f 54/58/50 43/59/51 39/51/43
f 71/110/74 43/59/51 54/58/50
f 72/111/77 43/59/51 71/110/74
f 69/104/75 72/112/77 71/103/74
f 43/59/51 72/111/77 70/108/70
f 69/104/75 70/93/70 72/112/77
f 68/101/73 65/96/72 69/107/75
f 58/85/65 74/113/78 73/87/67
f 58/85/65 75/114/79 74/113/78
f 58/85/65 64/95/71 75/114/79
f 73/87/67 74/113/78 78/115/80
f 75/114/79 77/116/81 74/113/78
f 74/113/78 77/116/81 76/117/82
f 78/115/80 74/113/78 76/117/82
f 64/95/71 79/118/83 75/114/79
f 75/114/79 79/118/83 77/116/81
f 64/95/71 80/119/84 79/118/83
f 64/95/71 82/106/76 80/119/84
f 65/96/72 82/106/76 64/95/71
f 79/118/83 80/119/84 81/120/85
f 84/121/86 81/120/85 80/119/84
f 59/105/63 73/122/67 82/106/76
f 73/122/67 78/123/80 83/124/87
f 76/125/82 83/124/87 78/123/80
f 82/106/76 83/124/87 80/119/84
f 73/122/67 83/124/87 82/106/76
f 83/124/87 84/121/86 80/119/84
f 77/116/81 85/126/88 76/117/82
f 77/116/81 90/127/89 85/126/88
f 85/126/88 86/128/90 76/117/82
f 76/125/82 86/129/90 91/130/91
f 79/118/83 90/127/89 77/116/81
f 81/120/85 90/127/89 79/118/83
f 84/121/86 89/131/92 81/120/85
f 81/120/85 89/131/92 90/127/89
f 76/125/82 91/130/91 83/124/87
f 83/124/87 91/130/91 84/121/86
f 91/130/91 89/131/92 84/121/86
f 86/129/90 89/131/92 91/130/91
f 87/132/93 88/133/94 85/126/88
f 85/126/88 88/133/94 86/128/90
f 87/132/93 93/134/95 92/135/96
f 92/135/96 88/133/94 87/132/93
f 92/135/96 94/136/97 88/133/94
f 88/137/94 94/138/97 97/139/98
f 85/126/88 90/127/89 87/132/93
f 90/127/89 93/134/95 87/132/93
f 89/131/92 98/140/99 93/134/95
f 89/131/92 93/134/95 90/127/89
f 93/134/95 95/141/100 92/135/96
f 95/141/100 99/142/101 92/135/96
f 98/140/99 96/143/102 93/134/95
f 96/143/102 95/141/100 93/134/95
f 97/139/98 98/140/99 86/129/90
f 88/137/94 97/139/98 86/129/90
f 89/131/92 86/129/90 98/140/99
f 98/140/99 97/139/98 96/143/102
f 92/135/96 99/142/101 94/136/97
f 99/142/101 101/144/103 100/145/104
f 100/145/104 94/136/97 99/142/101
f 95/141/100 102/146/105 99/142/101
f 99/142/101 102/146/105 101/144/103
f 105/147/106 101/144/103 102/146/105
f 95/141/100 96/143/102 105/147/106
f 95/141/100 105/147/106 102/146/105
f 97/139/98 94/138/97 103/148/107
f 97/139/98 103/148/107 96/143/102
f 94/138/97 100/149/104 103/148/107
f 96/143/102 104/150/108 105/147/106
f 103/148/107 104/150/108 96/143/102
f 100/145/104 101/144/103 106/5/5
f 101/144/103 105/147/106 107/3/3
f 101/144/103 107/3/3 106/5/5
f 7/1/1 107/3/3 105/147/106
f 105/147/106 108/14/12 7/1/1
f 100/149/104 106/151/5 103/148/107
f 106/151/5 3/12/6 108/14/12
f 3/12/6 8/10/10 108/14/12
f 104/150/108 108/14/12 105/147/106
f 103/148/107 106/151/5 104/150/108
f 106/151/5 108/14/12 104/150/108
