# Blender 4.0.2
# www.blender.org
o CoinDefault
v 0.000000 0.000000 0.001500
v -0.000000 -0.000000 -0.001500
v -0.000000 0.020000 0.001500
v -0.006840 0.018794 0.001500
v -0.006840 0.018794 -0.001500
v -0.000000 0.020000 -0.001500
v -0.012856 0.015321 0.001500
v -0.012856 0.015321 -0.001500
v -0.017321 0.010000 0.001500
v -0.017321 0.010000 -0.001500
v -0.019696 0.003473 0.001500
v -0.019696 0.003473 -0.001500
v -0.019696 -0.003473 0.001500
v -0.019696 -0.003473 -0.001500
v -0.017321 -0.010000 0.001500
v -0.017321 -0.010000 -0.001500
v -0.012856 -0.015321 0.001500
v -0.012856 -0.015321 -0.001500
v -0.006840 -0.018794 0.001500
v -0.006840 -0.018794 -0.001500
v 0.000000 -0.020000 0.001500
v 0.000000 -0.020000 -0.001500
v 0.006840 -0.018794 0.001500
v 0.006840 -0.018794 -0.001500
v 0.012856 -0.015321 0.001500
v 0.012856 -0.015321 -0.001500
v 0.017321 -0.010000 0.001500
v 0.017321 -0.010000 -0.001500
v 0.019696 -0.003473 0.001500
v 0.019696 -0.003473 -0.001500
v 0.019696 0.003473 0.001500
v 0.019696 0.003473 -0.001500
v 0.017321 0.010000 0.001500
v 0.017321 0.010000 -0.001500
v 0.012856 0.015321 0.001500
v 0.012856 0.015321 -0.001500
v 0.006840 0.018794 0.001500
v 0.006840 0.018794 -0.001500
v -0.000000 0.016242 0.001500
v -0.005555 0.015263 0.001500
v -0.005555 0.015263 -0.001500
v -0.000000 0.016242 -0.001500
v -0.010440 0.012442 0.001500
v -0.010440 0.012442 -0.001500
v -0.014066 0.008121 0.001500
v -0.014066 0.008121 -0.001500
v -0.015995 0.002820 0.001500
v -0.015995 0.002820 -0.001500
v -0.015995 -0.002820 0.001500
v -0.015995 -0.002820 -0.001500
v -0.014066 -0.008121 0.001500
v -0.014066 -0.008121 -0.001500
v -0.010440 -0.012442 0.001500
v -0.010440 -0.012442 -0.001500
v -0.005555 -0.015263 0.001500
v -0.005555 -0.015263 -0.001500
v 0.000000 -0.016242 0.001500
v 0.000000 -0.016242 -0.001500
v 0.005555 -0.015263 0.001500
v 0.005555 -0.015263 -0.001500
v 0.010440 -0.012442 0.001500
v 0.010440 -0.012442 -0.001500
v 0.014066 -0.008121 0.001500
v 0.014066 -0.008121 -0.001500
v 0.015995 -0.002820 0.001500
v 0.015995 -0.002820 -0.001500
v 0.015995 0.002820 0.001500
v 0.015995 0.002820 -0.001500
v 0.014066 0.008121 0.001500
v 0.014066 0.008121 -0.001500
v 0.010440 0.012442 0.001500
v 0.010440 0.012442 -0.001500
v 0.005555 0.015263 0.001500
v 0.005555 0.015263 -0.001500
v -0.000000 0.009614 0.001500
v -0.003288 0.009034 0.001500
v -0.003288 0.009034 -0.001500
v -0.000000 0.009614 -0.001500
v -0.006180 0.007365 0.001500
v -0.006180 0.007365 -0.001500
v -0.008326 0.004807 0.001500
v -0.008326 0.004807 -0.001500
v -0.009468 0.001669 0.001500
v -0.009468 0.001669 -0.001500
v -0.009468 -0.001669 0.001500
v -0.009468 -0.001669 -0.001500
v -0.008326 -0.004807 0.001500
v -0.008326 -0.004807 -0.001500
v -0.006180 -0.007365 0.001500
v -0.006180 -0.007365 -0.001500
v -0.003288 -0.009034 0.001500
v -0.003288 -0.009034 -0.001500
v 0.000000 -0.009614 0.001500
v 0.000000 -0.009614 -0.001500
v 0.003288 -0.009034 0.001500
v 0.003288 -0.009034 -0.001500
v 0.006180 -0.007365 0.001500
v 0.006180 -0.007365 -0.001500
v 0.008326 -0.004807 0.001500
v 0.008326 -0.004807 -0.001500
v 0.009468 -0.001669 0.001500
v 0.009468 -0.001669 -0.001500
v 0.009468 0.001669 0.001500
v 0.009468 0.001669 -0.001500
v 0.008326 0.004807 0.001500
v 0.008326 0.004807 -0.001500
v 0.006180 0.007365 0.001500
v 0.006180 0.007365 -0.001500
v 0.003288 0.009034 0.001500
v 0.003288 0.009034 -0.001500
vn -0.1736 0.9848 -0.0000
vn -0.5000 0.8660 -0.0000
vn -0.7660 0.6428 -0.0000
vn -0.9397 0.3420 -0.0000
vn -1.0000 -0.0000 -0.0000
vn -0.9397 -0.3420 -0.0000
vn -0.7660 -0.6428 -0.0000
vn -0.5000 -0.8660 -0.0000
vn -0.1736 -0.9848 -0.0000
vn 0.1736 -0.9848 -0.0000
vn 0.5000 -0.8660 -0.0000
vn 0.7660 -0.6428 -0.0000
vn 0.9397 -0.3420 -0.0000
vn 1.0000 -0.0000 -0.0000
vn 0.9397 0.3420 -0.0000
vn 0.7660 0.6428 -0.0000
vn 0.5000 0.8660 -0.0000
vn 0.1736 0.9848 -0.0000
vn -0.0000 -0.0000 1.0000
vn -0.0000 -0.0000 -1.0000
vt 0.500263 0.988175
vt 0.662189 0.959624
vt 0.804583 0.877412
vt 0.910273 0.751456
vt 0.966508 0.596949
vt 0.966508 0.432526
vt 0.910273 0.278019
vt 0.804583 0.152063
vt 0.662189 0.069852
vt 0.500263 0.041300
vt 0.338338 0.069852
vt 0.195943 0.152063
vt 0.090254 0.278019
vt 0.034018 0.432526
vt 0.034018 0.596949
vt 0.090254 0.751456
vt 0.195943 0.877412
vt 0.338338 0.959624
vt 0.631764 0.876032
vt 0.500263 0.899220
vt 0.747404 0.809268
vt 0.833235 0.706979
vt 0.878904 0.581502
vt 0.878904 0.447973
vt 0.833235 0.322496
vt 0.747404 0.220207
vt 0.631764 0.153443
vt 0.500263 0.130256
vt 0.368762 0.153443
vt 0.253123 0.220207
vt 0.167292 0.322496
vt 0.121622 0.447973
vt 0.121622 0.581502
vt 0.167292 0.706979
vt 0.253123 0.809268
vt 0.368762 0.876032
vt 0.578100 0.728593
vt 0.500263 0.742318
vt 0.646549 0.689074
vt 0.697354 0.628528
vt 0.724386 0.554257
vt 0.724386 0.475219
vt 0.697354 0.400948
vt 0.646549 0.340401
vt 0.578100 0.300882
vt 0.500263 0.287157
vt 0.422426 0.300882
vt 0.353978 0.340401
vt 0.303173 0.400948
vt 0.276141 0.475219
vt 0.276141 0.554257
vt 0.303173 0.628528
vt 0.353978 0.689074
vt 0.422426 0.728593
vt 0.500263 0.514738
s 0
f 3/1/1 6/1/1 5/2/1 4/2/1
f 4/2/2 5/2/2 8/3/2 7/3/2
f 7/3/3 8/3/3 10/4/3 9/4/3
f 9/4/4 10/4/4 12/5/4 11/5/4
f 11/5/5 12/5/5 14/6/5 13/6/5
f 13/6/6 14/6/6 16/7/6 15/7/6
f 15/7/7 16/7/7 18/8/7 17/8/7
f 17/8/8 18/8/8 20/9/8 19/9/8
f 19/9/9 20/9/9 22/10/9 21/10/9
f 21/10/10 22/10/10 24/11/10 23/11/10
f 23/11/11 24/11/11 26/12/11 25/12/11
f 25/12/12 26/12/12 28/13/12 27/13/12
f 27/13/13 28/13/13 30/14/13 29/14/13
f 29/14/14 30/14/14 32/15/14 31/15/14
f 31/15/15 32/15/15 34/16/15 33/16/15
f 33/16/16 34/16/16 36/17/16 35/17/16
f 35/17/17 36/17/17 38/18/17 37/18/17
f 37/18/18 38/18/18 6/1/18 3/1/18
f 40/19/19 39/20/19 3/1/19 4/2/19
f 42/20/20 41/19/20 5/2/20 6/1/20
f 43/21/19 40/19/19 4/2/19 7/3/19
f 41/19/20 44/21/20 8/3/20 5/2/20
f 45/22/19 43/21/19 7/3/19 9/4/19
f 44/21/20 46/22/20 10/4/20 8/3/20
f 47/23/19 45/22/19 9/4/19 11/5/19
f 46/22/20 48/23/20 12/5/20 10/4/20
f 49/24/19 47/23/19 11/5/19 13/6/19
f 48/23/20 50/24/20 14/6/20 12/5/20
f 51/25/19 49/24/19 13/6/19 15/7/19
f 50/24/20 52/25/20 16/7/20 14/6/20
f 53/26/19 51/25/19 15/7/19 17/8/19
f 52/25/20 54/26/20 18/8/20 16/7/20
f 55/27/19 53/26/19 17/8/19 19/9/19
f 54/26/20 56/27/20 20/9/20 18/8/20
f 57/28/19 55/27/19 19/9/19 21/10/19
f 56/27/20 58/28/20 22/10/20 20/9/20
f 59/29/19 57/28/19 21/10/19 23/11/19
f 58/28/20 60/29/20 24/11/20 22/10/20
f 61/30/19 59/29/19 23/11/19 25/12/19
f 60/29/20 62/30/20 26/12/20 24/11/20
f 63/31/19 61/30/19 25/12/19 27/13/19
f 62/30/20 64/31/20 28/13/20 26/12/20
f 65/32/19 63/31/19 27/13/19 29/14/19
f 64/31/20 66/32/20 30/14/20 28/13/20
f 67/33/19 65/32/19 29/14/19 31/15/19
f 66/32/20 68/33/20 32/15/20 30/14/20
f 69/34/19 67/33/19 31/15/19 33/16/19
f 68/33/20 70/34/20 34/16/20 32/15/20
f 71/35/19 69/34/19 33/16/19 35/17/19
f 70/34/20 72/35/20 36/17/20 34/16/20
f 73/36/19 71/35/19 35/17/19 37/18/19
f 72/35/20 74/36/20 38/18/20 36/17/20
f 39/20/19 73/36/19 37/18/19 3/1/19
f 74/36/20 42/20/20 6/1/20 38/18/20
f 76/37/19 75/38/19 39/20/19 40/19/19
f 78/38/20 77/37/20 41/19/20 42/20/20
f 79/39/19 76/37/19 40/19/19 43/21/19
f 77/37/20 80/39/20 44/21/20 41/19/20
f 81/40/19 79/39/19 43/21/19 45/22/19
f 80/39/20 82/40/20 46/22/20 44/21/20
f 83/41/19 81/40/19 45/22/19 47/23/19
f 82/40/20 84/41/20 48/23/20 46/22/20
f 85/42/19 83/41/19 47/23/19 49/24/19
f 84/41/20 86/42/20 50/24/20 48/23/20
f 87/43/19 85/42/19 49/24/19 51/25/19
f 86/42/20 88/43/20 52/25/20 50/24/20
f 89/44/19 87/43/19 51/25/19 53/26/19
f 88/43/20 90/44/20 54/26/20 52/25/20
f 91/45/19 89/44/19 53/26/19 55/27/19
f 90/44/20 92/45/20 56/27/20 54/26/20
f 93/46/19 91/45/19 55/27/19 57/28/19
f 92/45/20 94/46/20 58/28/20 56/27/20
f 95/47/19 93/46/19 57/28/19 59/29/19
f 94/46/20 96/47/20 60/29/20 58/28/20
f 97/48/19 95/47/19 59/29/19 61/30/19
f 96/47/20 98/48/20 62/30/20 60/29/20
f 99/49/19 97/48/19 61/30/19 63/31/19
f 98/48/20 100/49/20 64/31/20 62/30/20
f 101/50/19 99/49/19 63/31/19 65/32/19
f 100/49/20 102/50/20 66/32/20 64/31/20
f 103/51/19 101/50/19 65/32/19 67/33/19
f 102/50/20 104/51/20 68/33/20 66/32/20
f 105/52/19 103/51/19 67/33/19 69/34/19
f 104/51/20 106/52/20 70/34/20 68/33/20
f 107/53/19 105/52/19 69/34/19 71/35/19
f 106/52/20 108/53/20 72/35/20 70/34/20
f 109/54/19 107/53/19 71/35/19 73/36/19
f 108/53/20 110/54/20 74/36/20 72/35/20
f 75/38/19 109/54/19 73/36/19 39/20/19
f 110/54/20 78/38/20 42/20/20 74/36/20
f 1/55/19 75/38/19 76/37/19
f 2/55/20 77/37/20 78/38/20
f 1/55/19 76/37/19 79/39/19
f 2/55/20 80/39/20 77/37/20
f 1/55/19 79/39/19 81/40/19
f 2/55/20 82/40/20 80/39/20
f 1/55/19 81/40/19 83/41/19
f 2/55/20 84/41/20 82/40/20
f 1/55/19 83/41/19 85/42/19
f 2/55/20 86/42/20 84/41/20
f 1/55/19 85/42/19 87/43/19
f 2/55/20 88/43/20 86/42/20
f 1/55/19 87/43/19 89/44/19
f 2/55/20 90/44/20 88/43/20
f 1/55/19 89/44/19 91/45/19
f 2/55/20 92/45/20 90/44/20
f 1/55/19 91/45/19 93/46/19
f 2/55/20 94/46/20 92/45/20
f 1/55/19 93/46/19 95/47/19
f 2/55/20 96/47/20 94/46/20
f 1/55/19 95/47/19 97/48/19
f 2/55/20 98/48/20 96/47/20
f 1/55/19 97/48/19 99/49/19
f 2/55/20 100/49/20 98/48/20
f 1/55/19 99/49/19 101/50/19
f 2/55/20 102/50/20 100/49/20
f 1/55/19 101/50/19 103/51/19
f 2/55/20 104/51/20 102/50/20
f 1/55/19 103/51/19 105/52/19
f 2/55/20 106/52/20 104/51/20
f 1/55/19 105/52/19 107/53/19
f 2/55/20 108/53/20 106/52/20
f 1/55/19 107/53/19 109/54/19
f 2/55/20 110/54/20 108/53/20
f 1/55/19 109/54/19 75/38/19
f 2/55/20 78/38/20 110/54/20
