# Blender 4.1.1
# www.blender.org
g GIT_0002_nail.003
v 0.000045 0.024778 -0.002562
v 0.000501 -0.025284 0.000107
v 0.002415 0.024336 -0.000811
v 0.001510 0.024504 0.002022
v 0.000404 -0.025284 0.000182
v -0.001419 0.025051 0.002022
v -0.002324 0.025219 -0.000811
v -0.000030 -0.020882 -0.001023
v 0.000969 -0.020734 -0.000280
v 0.000615 -0.020775 0.000959
v -0.000603 -0.020948 0.000983
v -0.001001 -0.021014 -0.000242
v -0.000124 0.023857 -0.001002
v 0.000854 0.023674 -0.000241
v 0.000480 0.023744 0.000991
v -0.000729 0.023969 0.000991
v -0.001102 0.024039 -0.000241
v -0.000017 0.024441 -0.002562
v 0.000439 -0.025003 -0.000012
v 0.000313 -0.025003 0.000085
v 0.002352 0.023999 -0.000811
v 0.000361 -0.025003 0.000241
v 0.001447 0.024168 0.002022
v 0.000517 -0.025003 0.000241
v -0.001481 0.024714 0.002022
v 0.000566 -0.025003 0.000085
v -0.002386 0.024883 -0.000811
v -0.000953 0.008950 -0.000263
v -0.001335 0.008950 0.000977
v -0.002572 0.008950 0.000977
v -0.002955 0.008950 -0.000263
v -0.001954 0.008950 -0.001029
v -0.001207 0.016404 -0.001024
v -0.000206 0.016404 -0.000258
v -0.000588 0.016404 0.000981
v -0.001825 0.016404 0.000981
v -0.002208 0.016404 -0.000258
v 0.000002 -0.010846 -0.000258
v -0.000379 -0.010846 0.000978
v -0.001612 -0.010846 0.000978
v -0.001993 -0.010846 -0.000258
v -0.000996 -0.010846 -0.001021
v -0.001979 0.002683 -0.001019
v -0.000982 0.002683 -0.000256
v -0.001363 0.002683 0.000978
v -0.002595 0.002683 0.000978
v -0.002975 0.002683 -0.000256
v -0.000560 -0.004492 -0.000264
v -0.000941 -0.004492 0.000971
v -0.002174 -0.004492 0.000971
v -0.002555 -0.004492 -0.000264
v -0.001557 -0.004492 -0.001027
v 0.000365 -0.014554 -0.000255
v -0.000016 -0.014554 0.000981
v -0.001250 -0.014554 0.000981
v -0.001632 -0.014554 -0.000255
v -0.000633 -0.014554 -0.001020
v 0.001510 0.024504 -0.002078
v 0.002415 0.024336 0.000755
v 0.000045 0.024778 0.002506
v -0.002324 0.025219 0.000755
v -0.001419 0.025051 -0.002078
v -0.001481 0.024714 -0.002078
v -0.002386 0.024883 0.000755
v -0.000017 0.024441 0.002506
v 0.002352 0.023999 0.000755
v 0.001447 0.024168 -0.002078
vn 0.5017 -0.7704 -0.3935
vn 0.0264 -0.2239 -0.9743
vn 0.9470 -0.1596 -0.2789
vn 0.1693 -0.8784 -0.4469
vn 0.3810 0.8764 -0.2944
vn 0.3683 0.9276 -0.0626
vn 0.3826 -0.9163 -0.1189
vn 0.3959 -0.9007 0.1786
vn 0.3192 0.9466 0.0457
vn 0.2591 0.9598 0.1081
vn 0.1529 -0.8412 0.5186
vn -0.1441 -0.7730 0.6179
vn 0.1812 0.9723 0.1476
vn 0.0626 0.9846 0.1632
vn -0.5337 -0.7246 0.4361
vn -0.6932 -0.6984 0.1782
vn -0.1695 0.9791 0.1124
vn -0.6574 0.7101 -0.2523
vn -0.6490 -0.7286 -0.2189
vn -0.9197 -0.2751 -0.2801
vn -0.9046 -0.3204 -0.2813
vn 0.0247 -0.2356 -0.9715
vn -0.5543 -0.2579 0.7913
vn -0.5471 -0.2741 0.7909
vn 0.6184 -0.1863 0.7635
vn 0.6391 -0.1424 0.7558
vn 0.9453 -0.1161 -0.3047
vn -0.9487 0.1172 -0.2936
vn -0.9526 0.1370 -0.2717
vn -0.0736 0.0261 -0.9969
vn 0.0030 0.0007 -1.0000
vn -0.6044 0.0730 0.7933
vn -0.6503 0.0986 0.7533
vn 0.6079 -0.0755 0.7904
vn 0.5572 -0.0756 0.8270
vn 0.9494 -0.1157 -0.2920
vn 0.9400 -0.1346 -0.3135
vn -0.4830 -0.8751 -0.0317
vn -0.4743 -0.7588 -0.4464
vn -0.2369 -0.9261 -0.2935
vn -0.3103 -0.8989 0.3092
vn -0.1992 -0.9662 0.1640
vn 0.0728 -0.9726 0.2207
vn 0.0898 -0.9841 -0.1530
vn -0.0994 -0.8361 -0.5395
vn 0.1520 0.9874 -0.0436
vn 0.1059 0.5678 -0.8164
vn -0.0000 -0.0002 -1.0000
vn -0.0000 -0.0004 -1.0000
vn 0.9542 -0.0541 -0.2943
vn 0.9552 0.0279 -0.2946
vn 0.6075 -0.0345 0.7936
vn 0.6078 0.0175 0.7939
vn -0.6075 0.0339 0.7936
vn -0.6077 -0.0183 0.7939
vn -0.9542 0.0534 -0.2943
vn -0.9552 -0.0284 -0.2946
vn -0.9525 -0.0935 -0.2897
vn -0.9519 -0.0876 -0.2936
vn -0.0000 -0.0007 -1.0000
vn -0.0043 -0.0003 -1.0000
vn -0.6033 -0.0598 0.7952
vn -0.6069 -0.0550 0.7929
vn 0.6100 0.0596 0.7902
vn 0.6069 0.0566 0.7928
vn 0.9501 0.0935 -0.2977
vn 0.9519 0.0873 -0.2936
vn -0.9533 -0.0692 -0.2940
vn -0.0000 0.0002 -1.0000
vn -0.6072 -0.0441 0.7933
vn 0.6072 0.0441 0.7933
vn 0.9533 0.0694 -0.2940
vn -0.0643 -0.0108 -0.9979
vn 0.9423 0.0931 -0.3215
vn 0.5825 0.0543 0.8110
vn -0.6322 -0.0666 0.7720
vn -0.9579 -0.0930 -0.2715
vt 0.435665 0.954358
vt 0.433641 0.954337
vt 0.434024 0.953410
vt 0.426109 0.963903
vt 0.426109 0.966118
vt 0.412825 0.966118
vt 0.412825 0.963903
vt 0.402829 0.963903
vt 0.402829 0.966118
vt 0.389545 0.966118
vt 0.389545 0.963903
vt 0.379402 0.963903
vt 0.379402 0.966118
vt 0.366118 0.966118
vt 0.366118 0.963903
vt 0.355599 0.963903
vt 0.355599 0.966118
vt 0.342315 0.966118
vt 0.342315 0.963903
vt 0.433618 0.955379
vt 0.406481 0.955379
vt 0.407551 0.947406
vt 0.435486 0.952034
vt 0.422291 0.928032
vt 0.430200 0.925169
vt 0.436507 0.951719
vt 0.434653 0.952584
vt 0.415741 0.932898
vt 0.410663 0.939772
vt 0.052678 0.790446
vt 0.003908 0.790446
vt 0.003908 0.782490
vt 0.052678 0.782490
vt 0.052678 0.758273
vt 0.003908 0.758273
vt 0.003908 0.749902
vt 0.052678 0.749902
vt 0.052678 0.766346
vt 0.003908 0.766346
vt 0.052678 0.774302
vt 0.003908 0.774302
vt 0.491208 0.908133
vt 0.480867 0.910539
vt 0.480866 0.900396
vt 0.493384 0.900316
vt 0.500717 0.913292
vt 0.503276 0.922514
vt 0.493148 0.923057
vt 0.492631 0.911210
vt 0.435708 0.955182
vt 0.505568 0.906977
vt 0.515122 0.907093
vt 0.511490 0.916563
vt 0.436271 0.953790
vt 0.501474 0.899700
vt 0.505823 0.890038
vt 0.513038 0.897167
vt 0.486510 0.891969
vt 0.495873 0.888068
vt 0.449681 0.963903
vt 0.449681 0.966118
vt 0.436397 0.966118
vt 0.436397 0.963903
vt 0.141557 0.782490
vt 0.101070 0.782490
vt 0.101070 0.774302
vt 0.141557 0.774302
vt 0.101070 0.766346
vt 0.141557 0.766346
vt 0.101070 0.758273
vt 0.141557 0.758273
vt 0.101070 0.749902
vt 0.141557 0.749902
vt 0.141557 0.790446
vt 0.101070 0.790446
vt 0.253261 0.790446
vt 0.229194 0.790446
vt 0.229194 0.782490
vt 0.253261 0.782490
vt 0.253261 0.758273
vt 0.229194 0.758273
vt 0.229194 0.749902
vt 0.253261 0.749902
vt 0.253261 0.766346
vt 0.229194 0.766346
vt 0.253261 0.774302
vt 0.229194 0.774302
vt 0.187986 0.790446
vt 0.187986 0.782490
vt 0.187986 0.758273
vt 0.187986 0.749902
vt 0.187986 0.766346
vt 0.187986 0.774302
vt 0.294263 0.782490
vt 0.294263 0.774302
vt 0.294263 0.766346
vt 0.294263 0.758273
vt 0.294263 0.749902
vt 0.294263 0.790446
vt 0.916428 0.489124
vt 0.908221 0.483164
vt 0.926571 0.489123
vt 0.934773 0.463867
vt 0.937909 0.473513
vt 0.934776 0.483160
vt 0.459677 0.963903
vt 0.459677 0.966118
vt 0.484402 0.917920
vt 0.905086 0.473518
vt 0.908219 0.463871
vt 0.916423 0.457908
vt 0.926566 0.457906
s 1
f 2/1/1 19/2/2 26/3/3
f 67/4/4 58/5/5 3/6/6 21/7/7
f 66/8/8 59/9/9 4/10/10 23/11/11
f 65/12/12 60/13/13 6/14/14 25/15/15
f 64/16/16 61/17/17 7/18/18 27/19/19
f 20/20/20 12/21/21 8/22/22 19/2/2
f 22/23/23 11/24/24 12/25/21 20/26/20
f 24/27/25 10/28/26 11/24/24 22/23/23
f 26/3/3 9/29/27 10/28/26 24/27/25
f 19/2/2 8/22/22 9/29/27 26/3/3
f 37/30/28 17/31/29 13/32/30 33/33/31
f 36/34/32 16/35/33 17/36/29 37/37/28
f 35/38/34 15/39/35 16/35/33 36/34/32
f 34/40/36 14/41/37 15/39/35 35/38/34
f 33/33/31 13/32/30 14/41/37 34/40/36
f 17/42/38 27/43/19 63/44/39 13/45/40
f 16/46/41 25/47/15 64/48/16 17/49/38
f 5/50/42 20/20/20 19/2/2 2/1/1
f 15/51/43 23/52/11 65/53/12 16/46/41
f 5/54/42 22/23/23 20/26/20
f 14/55/44 21/56/7 66/57/8 15/51/43
f 5/54/42 24/27/25 22/23/23
f 13/45/40 18/58/45 67/59/4 14/55/44
f 2/1/1 26/3/3 24/27/25 5/54/42
f 63/60/39 62/61/46 1/62/47 18/63/45
f 43/64/48 32/65/49 28/66/50 44/67/51
f 44/67/51 28/66/50 29/68/52 45/69/53
f 45/69/53 29/68/52 30/70/54 46/71/55
f 46/71/55 30/70/54 31/72/56 47/73/57
f 47/74/57 31/75/56 32/65/49 43/64/48
f 32/65/49 33/33/31 34/40/36 28/66/50
f 28/66/50 34/40/36 35/38/34 29/68/52
f 29/68/52 35/38/34 36/34/32 30/70/54
f 30/70/54 36/34/32 37/37/28 31/72/56
f 31/75/56 37/30/28 33/33/31 32/65/49
f 56/76/58 41/77/59 42/78/60 57/79/61
f 55/80/62 40/81/63 41/82/59 56/83/58
f 54/84/64 39/85/65 40/81/63 55/80/62
f 53/86/66 38/87/67 39/85/65 54/84/64
f 57/79/61 42/78/60 38/87/67 53/86/66
f 51/88/68 47/74/57 43/64/48 52/89/69
f 50/90/70 46/71/55 47/73/57 51/91/68
f 49/92/71 45/69/53 46/71/55 50/90/70
f 48/93/72 44/67/51 45/69/53 49/92/71
f 52/89/69 43/64/48 44/67/51 48/93/72
f 42/78/60 52/89/69 48/93/72 38/87/67
f 38/87/67 48/93/72 49/92/71 39/85/65
f 39/85/65 49/92/71 50/90/70 40/81/63
f 40/81/63 50/90/70 51/91/68 41/82/59
f 41/77/59 51/88/68 52/89/69 42/78/60
f 8/94/73 57/79/61 53/86/66 9/95/74
f 9/95/74 53/86/66 54/84/64 10/96/75
f 10/96/75 54/84/64 55/80/62 11/97/76
f 11/97/76 55/80/62 56/83/58 12/98/77
f 12/99/77 56/76/58 57/79/61 8/94/73
f 7/100/18 61/101/17 62/102/46
f 3/103/6 58/104/5 62/102/46
f 58/104/5 1/105/47 62/102/46
f 27/106/19 7/107/18 62/61/46 63/60/39
f 25/15/15 6/14/14 61/17/17 64/16/16
f 23/11/11 4/10/10 60/13/13 65/12/12
f 21/7/7 3/6/6 59/9/9 66/8/8
f 18/63/45 1/62/47 58/5/5 67/4/4
f 15/51/43 66/57/8 23/52/11
f 16/46/41 65/53/12 25/47/15
f 13/45/40 63/44/39 18/58/45
f 14/55/44 67/59/4 21/56/7
f 17/49/38 64/48/16 27/108/19
f 61/101/17 6/109/14 62/102/46
f 6/109/14 60/110/13 62/102/46
f 60/110/13 4/111/10 62/102/46
f 4/111/10 59/112/9 62/102/46
f 59/112/9 3/103/6 62/102/46
