# Blender 4.1.1
# www.blender.org
g Obol_Model
v 0.002390 0.000426 -0.009906
v 0.003334 0.000790 -0.009364
v 0.003328 -0.001011 -0.008773
v -0.002456 -0.001045 -0.006625
v -0.002317 -0.000935 -0.009282
v 0.000653 -0.000883 -0.009447
v -0.000753 0.000669 -0.010076
v -0.002159 0.001011 -0.009306
v -0.002322 -0.000981 -0.005418
v -0.000537 -0.000964 -0.005869
v 0.000830 -0.000686 -0.004701
v 0.000308 -0.001070 -0.002779
v -0.000632 -0.000812 -0.003976
v 0.000394 -0.000629 -0.002010
v -0.001885 0.001034 -0.006836
v 0.000835 0.001071 -0.006542
v 0.000377 0.000945 -0.008375
v 0.002453 0.000918 -0.006844
v 0.000410 0.001258 -0.004796
v 0.001174 0.001162 -0.005309
v 0.001641 -0.001034 -0.007105
v 0.003131 -0.000949 -0.005712
v 0.002953 -0.000850 -0.003967
v 0.004161 -0.000839 -0.001492
v 0.006341 -0.000905 -0.007103
v 0.008559 -0.001038 -0.004392
v 0.004495 -0.000902 -0.004196
v 0.004939 0.000391 -0.008971
v 0.005585 -0.000841 -0.002885
v 0.007270 0.000502 -0.007381
v 0.008479 0.000446 -0.005714
v 0.009712 -0.001188 -0.000448
v 0.009496 -0.000155 -0.003711
v 0.001703 -0.000754 -0.001687
v 0.001778 0.001424 -0.002595
v 0.000765 -0.000697 -0.000328
v 0.003499 0.000799 -0.005755
v 0.004121 0.000829 -0.005113
v 0.004948 0.001076 -0.003738
v 0.006727 0.000671 -0.005666
v 0.009536 0.000667 -0.002783
v 0.005756 0.000736 -0.003100
v -0.006231 -0.001361 -0.001001
v -0.005868 -0.001116 -0.004939
v -0.007300 -0.001115 -0.001492
v -0.003638 -0.000968 -0.003179
v -0.008721 -0.001109 -0.003733
v -0.009523 0.000012 -0.002601
v -0.008666 -0.000442 -0.004688
v -0.008529 0.000924 -0.004263
v -0.006295 0.001151 -0.003141
v -0.007884 -0.001131 -0.005165
v -0.007800 0.000527 -0.005807
v -0.005696 -0.000379 -0.008025
v -0.009154 -0.001203 -0.000581
v -0.004120 -0.000756 0.001517
v -0.007385 -0.001133 -0.000351
v -0.004948 -0.000939 -0.000432
v -0.003409 -0.000866 -0.000134
v -0.006812 0.001102 0.000714
v -0.005718 0.001243 0.000980
v -0.009076 -0.001171 0.002260
v -0.009408 0.000994 -0.000701
v -0.009946 0.000276 0.001199
v -0.009940 -0.000712 0.001520
v -0.008977 0.000274 0.004545
v -0.009405 -0.000699 0.003826
v -0.003901 -0.001074 -0.004760
v -0.003090 -0.000902 -0.002126
v -0.004224 -0.001018 -0.001358
v -0.002878 -0.000748 -0.000874
v -0.002496 -0.000880 -0.003319
v -0.001873 -0.001188 -0.000577
v -0.000752 -0.001019 -0.001878
v 0.000211 -0.001120 0.000344
v -0.006327 0.001015 -0.006902
v -0.004643 0.000513 -0.008792
v -0.003580 0.001102 -0.006428
v -0.003918 0.001198 -0.005321
v -0.000390 0.001555 -0.000970
v -0.001518 0.001447 -0.003684
v -0.000016 0.001408 -0.003417
v -0.002056 0.001316 -0.005479
v 0.001185 -0.000809 0.001989
v 0.003933 -0.000806 -0.000099
v 0.004649 -0.001008 0.003178
v 0.002995 -0.000849 0.001892
v 0.005351 -0.000953 0.001311
v 0.000907 0.001419 0.000057
v 0.001909 0.001199 0.004238
v 0.005937 0.000748 0.004767
v 0.004987 0.000947 0.003087
v 0.005438 -0.000886 -0.001221
v 0.006826 -0.001022 0.000334
v 0.006492 -0.001132 0.002810
v 0.007425 -0.001396 0.006147
v 0.003764 -0.001131 0.004849
v 0.003964 -0.001287 0.006428
v 0.008123 -0.000868 0.005711
v 0.006741 -0.000434 0.007395
v 0.005352 0.000419 0.007983
v 0.009427 -0.000386 0.002513
v 0.009281 -0.001200 0.003030
v 0.010136 -0.000162 -0.001496
v 0.005344 0.000846 0.000518
v 0.006122 0.000685 0.002425
v 0.003660 0.001113 -0.000335
v 0.009693 0.000633 0.001341
v 0.009525 0.000285 0.002618
v 0.008466 0.000550 0.004540
v 0.004781 0.001056 -0.001488
v 0.007308 0.000679 0.000898
v -0.001029 -0.001119 0.003152
v -0.001522 -0.000836 0.002031
v -0.003564 -0.001070 0.003661
v -0.002310 -0.000905 0.003856
v -0.003636 0.000936 0.005044
v -0.001935 0.001342 0.005680
v -0.000887 0.001247 0.006615
v -0.001600 0.001266 0.004481
v 0.000184 0.001282 0.004994
v -0.002603 0.001325 0.002449
v -0.001841 0.001432 0.001198
v 0.000308 0.001325 0.003269
v 0.000312 0.001447 0.001218
v -0.003290 0.000923 0.006062
v -0.003071 0.001273 0.006944
v -0.004071 0.000975 0.003132
v -0.007343 -0.001005 0.006856
v -0.007872 0.001011 0.004868
v -0.004487 0.000957 0.008008
v -0.006705 0.000172 0.007329
v -0.003448 -0.001046 0.006220
v -0.002298 -0.001163 0.005615
v 0.001134 -0.001113 0.006112
v 0.001188 -0.001114 0.003281
v -0.001572 -0.001212 0.006921
v -0.001129 -0.001357 0.009439
v -0.005067 -0.000695 0.008493
v -0.003044 -0.000130 0.009397
v -0.003464 -0.000767 0.009205
v -0.001832 -0.000520 0.009841
v -0.001521 0.001082 0.008950
v -0.004684 -0.001214 0.008248
v 0.003525 -0.000310 0.009321
v 0.001995 -0.001370 0.006863
v 0.003027 0.000769 0.005391
v 0.000352 -0.000892 0.010028
v 0.003850 -0.001376 0.009088
v -0.000373 -0.000046 0.009939
v 0.001279 0.000820 0.009270
v 0.001184 0.001047 0.008205
vn 0.1927 0.1298 -0.9726
vn 0.0323 -0.7572 -0.6524
vn -0.0598 0.3758 -0.9248
vn 0.1989 0.8369 -0.5099
vn 0.4832 0.1399 -0.8643
vn 0.0462 -0.9945 0.0942
vn 0.0153 -0.9999 -0.0017
vn 0.0025 -0.9994 0.0331
vn 0.1876 -0.8515 -0.4896
vn -0.1789 -0.7463 -0.6411
vn -0.4446 0.3393 -0.8290
vn -0.5858 -0.3694 -0.7214
vn -0.1370 0.8920 -0.4308
vn 0.0323 0.9985 -0.0435
vn 0.0555 -0.9969 0.0554
vn 0.2087 -0.9737 0.0913
vn 0.4698 -0.8772 0.0992
vn 0.0190 -0.9985 0.0506
vn 0.1081 -0.9938 -0.0262
vn 0.0282 -0.9996 -0.0015
vn 0.1922 -0.9769 -0.0936
vn 0.2695 -0.9587 -0.0908
vn 0.0439 0.9956 -0.0833
vn 0.0192 0.9956 -0.0915
vn 0.0392 0.9938 -0.1042
vn 0.2589 0.9564 -0.1349
vn 0.0845 0.9958 -0.0362
vn 0.0823 0.9958 -0.0408
vn 0.0334 0.9964 -0.0780
vn 0.0245 -0.9975 -0.0666
vn 0.0005 0.9913 -0.1316
vn 0.4550 -0.8438 -0.2846
vn -0.0245 -0.9982 0.0541
vn 0.7692 0.3771 -0.5158
vn 0.6473 0.4093 -0.6431
vn 0.9207 -0.1714 -0.3505
vn -0.0439 -0.9984 0.0359
vn 0.3880 -0.7982 -0.4608
vn -0.0360 -0.9993 0.0125
vn 0.0078 -0.9992 0.0389
vn -0.0328 -0.9995 0.0025
vn -0.0444 -0.9985 -0.0305
vn 0.6014 -0.7989 0.0115
vn -0.0625 -0.9980 0.0069
vn 0.0531 0.9885 -0.1416
vn 0.0803 0.9961 -0.0363
vn 0.5962 0.7875 -0.1563
vn 0.0778 0.9954 -0.0557
vn 0.1692 0.9844 -0.0492
vn 0.2011 0.9792 0.0270
vn 0.0453 -0.9607 -0.2737
vn -0.3884 -0.9198 -0.0555
vn -0.5577 -0.8065 -0.1965
vn -0.0018 -0.9994 -0.0352
vn 0.0254 -0.9989 0.0393
vn 0.1020 -0.9939 0.0419
vn -0.5748 0.8155 -0.0678
vn -0.0683 0.9973 0.0266
vn -0.5965 0.7499 -0.2860
vn -0.0674 0.9976 -0.0141
vn -0.4125 0.7893 -0.4549
vn -0.9710 0.0343 -0.2365
vn -0.8457 -0.1666 -0.5070
vn -0.4475 -0.7993 -0.4011
vn -0.7365 0.2884 -0.6119
vn -0.8851 -0.4593 0.0748
vn -0.9014 0.4248 0.0842
vn 0.0484 -0.9979 -0.0429
vn 0.0160 -0.9988 0.0463
vn 0.0768 -0.9970 0.0137
vn 0.1007 -0.9831 0.1532
vn 0.0184 -0.9998 -0.0076
vn -0.2673 -0.9612 0.0677
vn -0.8413 -0.4263 0.3324
vn -0.7984 0.4341 0.4173
vn -0.3452 0.9041 0.2517
vn 0.0377 -0.9988 0.0326
vn 0.1570 -0.9863 0.0497
vn -0.0788 -0.9966 0.0232
vn -0.1906 -0.9817 0.0029
vn -0.0733 -0.9972 0.0163
vn -0.6904 -0.6910 0.2144
vn -0.0247 0.9962 -0.0835
vn -0.0520 0.9971 -0.0562
vn -0.1294 0.9843 0.1202
vn -0.0312 0.9987 -0.0397
vn 0.0092 1.0000 0.0017
vn -0.0361 0.9984 0.0437
vn 0.2825 -0.9489 -0.1403
vn -0.0691 -0.9967 -0.0421
vn 0.0777 -0.9922 -0.0973
vn -0.0355 -0.9974 -0.0619
vn -0.0632 -0.9979 -0.0121
vn -0.0067 -0.9955 -0.0941
vn -0.0639 -0.9939 -0.0895
vn -0.0535 -0.9967 -0.0603
vn 0.0980 0.9948 0.0292
vn 0.1514 0.9884 0.0159
vn 0.1183 0.9925 0.0305
vn 0.1075 0.9916 0.0725
vn 0.1161 0.9569 0.2661
vn 0.1282 0.9822 0.1376
vn -0.0702 -0.9967 -0.0416
vn 0.4049 -0.8448 0.3499
vn 0.6688 0.0594 0.7411
vn 0.3036 -0.7022 0.6440
vn 0.3995 0.6817 0.6130
vn 0.3613 0.2328 0.9029
vn -0.0073 -0.9978 -0.0657
vn 0.8312 -0.1861 0.5239
vn -0.3478 -0.9052 0.2443
vn 0.6184 0.7150 0.3263
vn 0.1558 0.7684 0.6207
vn 0.7070 -0.6723 0.2194
vn 0.9642 -0.0877 0.2503
vn 0.9934 -0.0245 -0.1123
vn 0.7207 0.6825 0.1218
vn 0.9204 0.2215 0.3223
vn 0.1223 0.9924 0.0112
vn 0.1392 0.9902 0.0057
vn 0.1929 0.9809 0.0230
vn 0.0400 0.9991 0.0106
vn -0.2798 -0.9599 -0.0191
vn -0.0167 -0.9984 -0.0542
vn -0.0449 -0.9978 -0.0483
vn -0.1016 0.9917 0.0790
vn -0.1419 0.9889 -0.0439
vn 0.0147 0.9987 0.0488
vn 0.0322 0.9987 0.0398
vn -0.0699 0.9974 0.0174
vn -0.0861 0.9911 0.1019
vn -0.0934 0.9909 0.0968
vn 0.0336 0.9984 0.0464
vn 0.0484 0.9979 0.0434
vn 0.0490 -0.9930 0.1071
vn -0.0838 0.9963 0.0213
vn -0.1577 0.9799 -0.1223
vn -0.2822 0.8354 0.4717
vn -0.2098 -0.9003 0.3814
vn -0.5971 -0.5798 0.5544
vn -0.5803 0.4179 0.6990
vn -0.0084 -0.9986 -0.0532
vn -0.1234 -0.9922 -0.0166
vn -0.1176 -0.8819 0.4565
vn -0.4800 -0.1984 0.8545
vn -0.3188 -0.3875 0.8650
vn -0.2795 0.2296 0.9323
vn -0.0250 0.3566 0.9339
vn -0.0919 0.8543 0.5116
vn -0.3329 -0.1302 0.9339
vn 0.1989 0.9701 0.1391
vn 0.0847 -0.3281 0.9408
vt 0.924272 0.971001
vt 0.869483 0.953493
vt 0.895682 0.904272
vt 0.061396 0.443306
vt 0.096037 0.484356
vt 0.024074 0.442627
vt 0.708078 0.296548
vt 0.752906 0.340955
vt 0.636054 0.300931
vt 0.628950 0.382876
vt 0.559354 0.328255
vt 0.716324 0.413877
vt 0.829087 0.808168
vt 0.811875 0.864721
vt 0.789490 0.779727
vt 0.900757 0.857231
vt 0.853094 0.932552
vt 0.914956 0.992653
vt 0.901655 0.983477
vt 0.949452 0.933023
vt 0.012668 0.385054
vt 0.029650 0.361525
vt 0.755250 0.304642
vt 0.732908 0.181842
vt 0.730043 0.200845
vt 0.693647 0.241046
vt 0.757801 0.188822
vt 0.787058 0.249838
vt 0.059514 0.185476
vt 0.076037 0.188768
vt 0.047259 0.186681
vt 0.082155 0.242165
vt 0.052899 0.251276
vt 0.477448 0.909428
vt 0.438051 0.962642
vt 0.444323 0.874684
vt 0.024916 0.305877
vt 0.074277 0.334074
vt 0.114296 0.317130
vt 0.101677 0.373300
vt 0.473114 0.886580
vt 0.410940 0.810196
vt 0.396493 0.868913
vt 0.738822 0.240668
vt 0.416093 0.948778
vt 0.466409 0.861844
vt 0.476704 0.184639
vt 0.581792 0.189288
vt 0.435905 0.188533
vt 0.457780 0.225110
vt 0.431132 0.158056
vt 0.628517 0.200938
vt 0.503131 0.294948
vt 0.493048 0.250838
vt 0.548745 0.164563
vt 0.603253 0.247178
vt 0.588646 0.160488
vt 0.195666 0.238038
vt 0.245682 0.208231
vt 0.235105 0.263895
vt 0.061289 0.501853
vt 0.304805 0.191565
vt 0.332633 0.257227
vt 0.177277 0.186683
vt 0.119299 0.205314
vt 0.165804 0.307666
vt 0.172287 0.383110
vt 0.145584 0.383292
vt 0.329555 0.482728
vt 0.175947 0.508289
vt 0.211118 0.443991
vt 0.221451 0.292513
vt 0.216183 0.377696
vt 0.254901 0.387797
vt 0.239580 0.507039
vt 0.340081 0.154537
vt 0.472058 0.061603
vt 0.430664 0.143385
vt 0.410362 0.070826
vt 0.290608 0.093929
vt 0.313441 0.051677
vt 0.846516 0.533451
vt 0.917961 0.543887
vt 0.813530 0.635160
vt 0.886180 0.642542
vt 0.833961 0.735429
vt 0.795072 0.576937
vt 0.771906 0.643930
vt 0.759404 0.669470
vt 0.802358 0.679202
vt 0.816975 0.461672
vt 0.843336 0.478648
vt 0.404080 0.178740
vt 0.757125 0.615105
vt 0.508559 0.029052
vt 0.381579 0.053115
vt 0.422767 0.035220
vt 0.301653 0.014703
vt 0.346782 0.026941
vt 0.665312 0.552161
vt 0.625797 0.550310
vt 0.648837 0.515925
vt 0.453448 0.020712
vt 0.631668 0.500416
vt 0.516040 0.473086
vt 0.589803 0.466277
vt 0.530170 0.433851
vt 0.489581 0.446898
vt 0.452677 0.495721
vt 0.876693 0.406649
vt 0.893408 0.432559
vt 0.912603 0.467305
vt 0.859817 0.340718
vt 0.810295 0.312161
vt 0.838958 0.292317
vt 0.281249 0.062848
vt 0.276783 0.027507
vt 0.267692 0.113805
vt 0.253321 0.090044
vt 0.244617 0.015100
vt 0.018785 0.214549
vt 0.237846 0.103883
vt 0.231788 0.107679
vt 0.168132 0.090927
vt 0.688117 0.586554
vt 0.670355 0.625118
vt 0.204209 0.038322
vt 0.188443 0.068041
vt 0.018569 0.269820
vt 0.878194 0.380914
vt 0.825031 0.409568
vt 0.907602 0.773048
vt 0.930553 0.808348
vt 0.910584 0.730004
vt 0.924146 0.592679
vt 0.397459 0.983905
vt 0.375479 0.978977
vt 0.370267 0.910176
vt 0.248109 0.986148
vt 0.200096 0.926823
vt 0.332854 0.828680
vt 0.258248 0.820922
vt 0.422573 0.973727
vt 0.078544 0.302126
vt 0.194854 0.294121
vt 0.047361 0.302611
vt 0.107792 0.300923
vt 0.171368 0.277554
vt 0.726075 0.733494
vt 0.724630 0.800238
vt 0.688453 0.715480
vt 0.928533 0.323903
vt 0.893848 0.301307
vt 0.948162 0.275496
vt 0.922268 0.238138
vt 0.859542 0.241137
vt 0.885079 0.186182
vt 0.332278 0.780862
vt 0.326821 0.623470
vt 0.388461 0.708842
vt 0.244203 0.678179
vt 0.293911 0.583217
vt 0.232064 0.635982
vt 0.813880 0.207022
vt 0.863163 0.302454
vt 0.758582 0.906020
vt 0.699501 0.949051
vt 0.617190 0.886594
vt 0.636728 0.958869
vt 0.587914 0.907856
vt 0.680781 0.833572
vt 0.771240 0.938073
vt 0.631480 0.800145
vt 0.785413 0.854324
vt 0.763566 0.818908
vt 0.287483 0.524132
vt 0.108325 0.617177
vt 0.220800 0.536330
vt 0.856682 0.099296
vt 0.754044 0.123232
vt 0.835389 0.082733
vt 0.350196 0.490503
vt 0.317274 0.503276
vt 0.808632 0.896730
vt 0.820215 0.908981
vt 0.828061 0.928933
vt 0.821431 0.949577
vt 0.278626 0.286432
vt 0.361256 0.219936
vt 0.401907 0.269731
vt 0.365865 0.277469
vt 0.394424 0.229108
vt 0.782294 0.063446
vt 0.721880 0.102521
vt 0.371335 0.476013
vt 0.425199 0.416421
vt 0.833852 0.061847
vt 0.827404 0.979288
vt 0.787219 0.985629
vt 0.351302 0.610158
vt 0.385891 0.672086
vt 0.273554 0.297934
vt 0.278630 0.332181
vt 0.488853 0.332363
vt 0.462052 0.380938
vt 0.325419 0.580532
vt 0.310876 0.531524
vt 0.333023 0.320083
vt 0.299449 0.308987
vt 0.375054 0.356327
vt 0.392951 0.306033
vt 0.657034 0.663655
vt 0.600170 0.613561
vt 0.581134 0.671378
vt 0.542089 0.669476
vt 0.140902 0.765661
vt 0.103536 0.787358
vt 0.135827 0.714067
vt 0.196227 0.718768
vt 0.168627 0.772065
vt 0.168418 0.861561
vt 0.208593 0.840906
vt 0.174605 0.969294
vt 0.238783 0.740155
vt 0.290082 0.774814
vt 0.612735 0.651953
vt 0.127323 0.815487
vt 0.083411 0.762625
vt 0.035879 0.789945
vt 0.064778 0.928089
vt 0.465353 0.677826
vt 0.443863 0.591580
vt 0.423635 0.541720
vt 0.036184 0.953645
vt 0.010662 0.854463
vt 0.410282 0.641051
vt 0.562407 0.719726
vt 0.626335 0.755496
vt 0.513736 0.780536
vt 0.447915 0.675658
vt 0.467753 0.725038
vt 0.453796 0.751319
vt 0.491695 0.830733
vt 0.446401 0.807907
vt 0.480579 0.782631
vt 0.417200 0.742148
vt 0.066473 0.697642
vt 0.131548 0.636526
vt 0.526407 0.829973
vt 0.505228 0.883256
vt 0.552978 0.926156
vt 0.691896 0.169511
vt 0.945493 0.848168
vt 0.950683 0.893229
vt 0.709530 0.668156
vt 0.806987 0.250635
vt 0.414084 0.715222
vt 0.470793 0.852639
s 1
f 1/1/1 6/2/2 7/3/3
f 2/4/4 28/5/5 1/6/1
f 10/7/6 4/8/7 21/9/8
f 6/10/2 3/11/9 5/12/10
f 3/11/9 21/9/8 5/12/10
f 77/13/11 5/14/10 54/15/12
f 77/13/11 7/3/3 5/14/10
f 77/13/11 8/16/13 7/3/3
f 5/14/10 7/3/3 6/17/2
f 1/1/1 3/18/9 6/19/2
f 7/3/3 2/20/4 1/1/1
f 8/16/13 2/20/4 7/3/3
f 2/4/4 8/21/13 17/22/14
f 5/12/10 21/9/8 4/8/7
f 4/8/7 10/7/6 9/23/15
f 14/24/16 12/25/17 11/26/18
f 12/25/17 74/27/19 72/28/20
f 12/29/17 14/30/16 74/31/19
f 14/30/16 36/32/21 74/31/19
f 36/32/21 75/33/22 74/31/19
f 16/34/23 15/35/24 19/36/25
f 17/22/14 15/37/24 16/38/23
f 20/39/26 18/40/27 16/38/23
f 16/41/23 19/36/25 35/42/28
f 35/42/28 19/36/25 82/43/29
f 10/7/6 13/44/30 9/23/15
f 10/7/6 21/9/8 11/26/18
f 10/7/6 11/26/18 13/44/30
f 12/25/17 13/44/30 11/26/18
f 12/25/17 72/28/20 13/44/30
f 83/45/31 19/36/25 15/35/24
f 16/38/23 18/40/27 17/22/14
f 20/46/26 16/41/23 35/42/28
f 17/22/14 18/40/27 2/4/4
f 19/36/25 83/45/31 82/43/29
f 26/47/32 27/48/33 3/11/9
f 31/49/34 26/47/32 30/50/35
f 33/51/36 26/47/32 31/49/34
f 21/9/8 23/52/37 11/26/18
f 28/53/5 25/54/38 3/11/9
f 3/11/9 25/54/38 26/47/32
f 27/48/33 26/47/32 29/55/39
f 30/50/35 26/47/32 25/54/38
f 21/9/8 3/11/9 22/56/40
f 27/48/33 23/52/37 22/56/40
f 3/11/9 27/48/33 22/56/40
f 29/57/39 23/52/37 27/48/33
f 24/58/41 29/59/39 93/60/42
f 1/6/1 28/5/5 3/61/9
f 30/50/35 25/54/38 28/53/5
f 29/59/39 26/62/32 32/63/43
f 24/58/41 23/64/37 29/59/39
f 34/65/44 24/58/41 36/32/21
f 35/66/28 38/67/45 37/68/46
f 41/69/47 30/70/35 40/71/48
f 20/39/26 35/66/28 37/68/46
f 35/72/28 39/73/49 38/67/45
f 14/30/16 34/65/44 36/32/21
f 40/71/48 30/70/35 2/4/4
f 37/68/46 38/67/45 40/71/48
f 39/73/49 40/71/48 38/67/45
f 39/73/49 42/74/50 40/71/48
f 18/40/27 20/39/26 37/68/46
f 2/4/4 18/40/27 40/71/48
f 18/40/27 37/68/46 40/71/48
f 41/69/47 31/75/34 30/70/35
f 41/69/47 40/71/48 42/74/50
f 44/76/51 55/77/52 47/78/53
f 45/79/54 46/80/55 70/81/56
f 63/82/57 60/83/58 50/84/59
f 51/85/60 76/86/61 50/84/59
f 48/87/62 50/84/59 49/88/63
f 52/89/64 49/88/63 53/90/65
f 50/84/59 53/90/65 49/88/63
f 54/15/12 52/89/64 53/90/65
f 48/87/62 65/91/66 64/92/67
f 64/92/67 63/82/57 48/87/62
f 52/93/64 44/76/51 47/78/53
f 55/77/52 44/76/51 45/79/54
f 47/94/53 48/87/62 49/88/63
f 48/87/62 63/82/57 50/84/59
f 47/94/53 49/88/63 52/89/64
f 48/87/62 47/94/53 65/91/66
f 47/78/53 55/77/52 65/95/66
f 43/96/68 57/97/69 45/79/54
f 59/98/70 58/99/71 70/81/56
f 59/100/70 56/101/72 58/102/71
f 55/77/52 57/97/69 62/103/73
f 58/99/71 57/97/69 43/96/68
f 70/81/56 58/99/71 43/96/68
f 58/104/71 62/105/73 57/106/69
f 55/107/52 62/105/73 65/108/66
f 62/105/73 67/109/74 65/108/66
f 65/91/66 67/110/74 64/92/67
f 67/110/74 66/111/75 64/92/67
f 66/111/75 63/82/57 64/92/67
f 130/112/76 60/83/58 63/82/57
f 56/101/72 62/105/73 58/104/71
f 44/113/51 68/114/77 46/115/55
f 46/80/55 69/116/78 70/81/56
f 70/81/56 69/116/78 71/117/79
f 9/23/15 72/28/20 68/114/77
f 68/118/77 72/119/20 69/116/78
f 69/116/78 72/119/20 71/117/79
f 71/117/79 72/119/20 73/120/80
f 74/31/19 75/33/22 73/121/80
f 113/122/81 114/123/82 71/124/79
f 76/86/61 54/15/12 53/90/65
f 76/86/61 8/16/13 77/13/11
f 70/81/56 71/117/79 59/98/70
f 69/116/78 46/80/55 68/118/77
f 59/100/70 71/125/79 114/126/82
f 72/119/20 74/127/19 73/120/80
f 113/122/81 71/124/79 73/128/80
f 73/121/80 75/33/22 113/129/81
f 52/130/64 54/131/12 5/12/10
f 54/15/12 76/86/61 77/13/11
f 4/8/7 68/114/77 52/130/64
f 5/12/10 4/8/7 52/130/64
f 8/16/13 76/86/61 78/132/83
f 8/16/13 78/132/83 15/133/24
f 52/130/64 68/114/77 44/113/51
f 76/86/61 51/85/60 79/134/84
f 51/85/60 60/83/58 61/135/85
f 83/45/31 78/136/83 79/137/84
f 79/137/84 81/138/86 83/45/31
f 79/137/84 51/139/60 61/140/85
f 80/141/87 79/137/84 61/140/85
f 80/141/87 81/138/86 79/137/84
f 61/140/85 123/142/88 80/141/87
f 80/141/87 82/43/29 81/138/86
f 15/35/24 78/143/83 83/45/31
f 81/138/86 82/43/29 83/45/31
f 79/134/84 78/132/83 76/86/61
f 36/32/21 84/144/89 75/33/22
f 24/58/41 93/60/42 88/145/90
f 84/144/89 136/146/91 75/33/22
f 87/147/92 84/144/89 36/32/21
f 36/32/21 24/58/41 85/148/93
f 85/148/93 87/147/92 36/32/21
f 84/149/89 97/150/94 136/151/91
f 84/152/89 87/153/92 97/154/94
f 86/155/95 97/154/94 87/153/92
f 88/156/90 86/155/95 87/153/92
f 88/156/90 95/157/96 86/155/95
f 89/158/97 35/42/28 80/141/87
f 92/159/98 107/160/99 90/161/100
f 92/159/98 90/161/100 91/162/101
f 89/158/97 90/161/100 107/160/99
f 107/160/99 35/42/28 89/158/97
f 91/162/101 90/161/100 147/163/102
f 88/145/90 85/148/93 24/58/41
f 94/164/103 95/157/96 88/156/90
f 85/165/93 88/156/90 87/153/92
f 96/166/104 100/167/105 149/168/106
f 149/168/106 100/167/105 101/169/107
f 149/168/106 101/169/107 145/170/108
f 96/166/104 149/168/106 98/171/109
f 96/166/104 99/172/110 100/167/105
f 97/150/94 146/173/111 136/151/91
f 146/173/111 97/150/94 98/171/109
f 95/174/96 97/150/94 86/175/95
f 95/174/96 96/166/104 97/150/94
f 97/150/94 96/166/104 98/171/109
f 91/162/101 147/163/102 110/176/112
f 147/163/102 151/177/113 110/176/112
f 110/176/112 151/177/113 101/178/107
f 103/179/114 32/180/43 102/181/115
f 41/69/47 104/182/116 33/183/36
f 96/166/104 95/184/96 103/185/114
f 99/172/110 96/166/104 103/186/114
f 102/187/115 99/172/110 103/186/114
f 29/59/39 94/188/103 93/60/42
f 29/59/39 32/63/43 94/188/103
f 95/157/96 32/180/43 103/179/114
f 26/189/32 104/190/116 32/191/43
f 32/180/43 95/157/96 94/164/103
f 33/192/36 104/190/116 26/189/32
f 108/193/117 102/181/115 104/194/116
f 104/195/116 41/69/47 108/196/117
f 102/181/115 108/193/117 109/197/118
f 104/194/116 102/181/115 32/180/43
f 109/198/118 110/199/112 102/187/115
f 106/200/119 105/201/120 92/159/98
f 39/73/49 35/72/28 107/202/99
f 111/203/121 39/73/49 107/202/99
f 110/199/112 99/172/110 102/187/115
f 110/204/112 109/205/118 108/196/117
f 100/167/105 99/172/110 110/199/112
f 110/176/112 106/206/119 91/162/101
f 106/206/119 110/176/112 108/207/117
f 91/162/101 106/206/119 92/159/98
f 105/208/120 42/74/50 111/203/121
f 42/74/50 39/73/49 111/203/121
f 105/208/120 111/203/121 107/209/99
f 112/210/122 106/211/119 108/196/117
f 105/208/120 112/210/122 42/74/50
f 112/210/122 105/208/120 106/211/119
f 108/196/117 41/69/47 112/210/122
f 112/210/122 41/69/47 42/74/50
f 114/126/82 113/212/81 115/213/123
f 134/214/124 133/215/125 115/213/123
f 118/216/126 126/217/127 119/218/128
f 121/219/129 123/142/88 120/220/130
f 119/218/128 120/220/130 118/216/126
f 128/221/131 122/222/132 61/140/85
f 120/220/130 123/142/88 122/222/132
f 128/221/131 61/140/85 60/223/58
f 124/224/133 125/225/134 123/142/88
f 115/213/123 116/226/135 134/214/124
f 113/212/81 116/226/135 115/213/123
f 120/220/130 117/227/136 118/216/126
f 126/217/127 127/228/137 119/218/128
f 114/126/82 115/213/123 56/101/72
f 122/222/132 123/142/88 61/140/85
f 121/219/129 124/224/133 123/142/88
f 80/141/87 123/142/88 125/225/134
f 125/225/134 90/161/100 89/158/97
f 124/224/133 90/161/100 125/225/134
f 119/218/128 121/219/129 120/220/130
f 56/101/72 115/213/123 133/215/125
f 120/220/130 122/222/132 128/221/131
f 131/229/138 126/217/127 117/227/136
f 131/229/138 127/228/137 126/217/127
f 66/111/75 130/112/76 63/82/57
f 130/230/76 128/221/131 60/223/58
f 144/231/139 56/101/72 133/215/125
f 117/227/136 130/230/76 131/229/138
f 128/221/131 130/230/76 117/227/136
f 62/105/73 144/231/139 129/232/140
f 62/105/73 56/101/72 144/231/139
f 67/109/74 62/105/73 129/232/140
f 129/232/140 66/233/75 67/109/74
f 66/234/75 132/235/141 130/230/76
f 129/232/140 132/236/141 66/233/75
f 131/229/138 130/230/76 132/235/141
f 134/214/124 137/237/142 133/215/125
f 136/151/91 135/238/143 113/212/81
f 137/237/142 135/238/143 138/239/144
f 139/240/145 141/241/146 140/242/147
f 139/240/145 140/242/147 132/236/141
f 138/239/144 140/242/147 141/241/146
f 150/243/148 143/244/149 142/245/150
f 139/240/145 129/232/140 144/231/139
f 129/232/140 139/240/145 132/236/141
f 113/212/81 135/238/143 116/226/135
f 134/214/124 116/226/135 135/238/143
f 135/238/143 137/237/142 134/214/124
f 137/237/142 144/231/139 133/215/125
f 137/237/142 138/239/144 144/231/139
f 144/231/139 138/239/144 141/241/146
f 144/231/139 141/241/146 139/240/145
f 140/242/147 138/239/144 142/245/150
f 142/245/150 143/244/149 140/242/147
f 140/242/147 143/244/149 131/246/138
f 127/228/137 143/247/149 119/218/128
f 136/151/91 146/173/111 135/238/143
f 152/248/151 90/161/100 121/219/129
f 147/163/102 152/248/151 151/177/113
f 138/239/144 135/238/143 149/168/106
f 138/239/144 149/168/106 148/249/152
f 150/243/148 142/245/150 148/249/152
f 119/218/128 143/247/149 152/248/151
f 150/243/148 148/249/152 151/250/113
f 101/169/107 151/251/113 145/170/108
f 90/161/100 152/248/151 147/163/102
f 149/168/106 135/238/143 146/173/111
f 119/218/128 152/248/151 121/219/129
f 151/250/113 148/249/152 145/170/108
f 145/170/108 148/249/152 149/168/106
f 143/247/149 151/177/113 152/248/151
f 68/114/77 4/8/7 9/23/15
f 34/252/44 14/24/16 11/26/18
f 72/28/20 9/23/15 13/44/30
f 35/42/28 82/43/29 80/141/87
f 8/16/13 15/253/24 17/254/14
f 31/75/34 41/69/47 33/183/36
f 21/9/8 22/56/40 23/52/37
f 11/26/18 23/52/37 34/252/44
f 34/65/44 23/64/37 24/58/41
f 30/70/35 28/5/5 2/4/4
f 50/84/59 60/83/58 51/85/60
f 45/79/54 57/97/69 55/77/52
f 43/96/68 45/79/54 70/81/56
f 59/100/70 114/126/82 56/101/72
f 45/79/54 44/76/51 46/80/55
f 50/84/59 76/86/61 53/90/65
f 136/151/91 113/212/81 75/255/22
f 105/201/120 107/160/99 92/159/98
f 146/173/111 98/171/109 149/168/106
f 110/199/112 101/169/107 100/167/105
f 94/164/103 88/156/90 93/256/42
f 126/217/127 118/216/126 117/227/136
f 125/225/134 89/158/97 80/141/87
f 117/227/136 120/220/130 128/221/131
f 142/245/150 138/239/144 148/249/152
f 132/236/141 140/242/147 131/257/138
f 127/228/137 131/229/138 143/247/149
f 121/219/129 90/161/100 124/224/133
f 150/243/148 151/258/113 143/244/149
