# Blender 4.0.2
# www.blender.org
o Wires
v 0.055420 0.291413 -0.303518
v 0.051785 0.296731 -0.298295
v 0.063586 0.295111 -0.301078
v 0.059620 0.299511 -0.295209
v 0.038248 0.192507 -0.158515
v 0.044498 0.197200 -0.155412
v 0.032723 0.195374 -0.151459
v 0.039582 0.199067 -0.148120
v 0.042966 0.235510 -0.201463
v 0.049576 0.237961 -0.195233
v 0.038538 0.242330 -0.199317
v 0.044301 0.244068 -0.192639
v 0.058341 0.264631 -0.256076
v 0.066430 0.267638 -0.252326
v 0.054264 0.270710 -0.251936
v 0.061799 0.272879 -0.247538
v 0.030960 0.326717 -0.351878
v 0.039205 0.331108 -0.350747
v 0.027768 0.331274 -0.345572
v 0.035903 0.334665 -0.343798
v -0.037843 0.409496 -0.401310
v -0.029363 0.413296 -0.399838
v -0.040764 0.413630 -0.394595
v -0.032449 0.416383 -0.392573
v -0.055154 0.565326 -0.424687
v -0.046996 0.564964 -0.420013
v -0.059041 0.567511 -0.417557
v -0.051474 0.566111 -0.412909
v 0.039616 0.670210 -0.451911
v 0.048498 0.671086 -0.448933
v 0.037741 0.677516 -0.448192
v 0.045913 0.677804 -0.444457
v 0.014684 0.706605 -0.624960
v 0.023616 0.708381 -0.627321
v 0.014495 0.713800 -0.620610
v 0.023308 0.714944 -0.621966
v 0.006066 0.754813 -0.671463
v 0.027865 0.755661 -0.670065
v 0.003881 0.764470 -0.654724
v 0.022979 0.766009 -0.651539
v -0.020214 0.640582 -0.407615
v -0.017299 0.635371 -0.412808
v -0.026985 0.642971 -0.412993
v -0.024980 0.637181 -0.417886
v -0.044269 0.486202 -0.426721
v -0.052242 0.485562 -0.430030
v -0.048151 0.488577 -0.419653
v -0.055640 0.488896 -0.423162
v -0.007356 0.361860 -0.382284
v -0.010624 0.366102 -0.375810
v 0.000502 0.366902 -0.381460
v -0.002764 0.370140 -0.374349
v 0.030591 0.678144 -0.573633
v 0.029900 0.686255 -0.571768
v 0.039557 0.679504 -0.575842
v 0.038688 0.687326 -0.572835
v 0.023844 0.731152 -0.628663
v 0.028488 0.717948 -0.648313
v 0.003987 0.729384 -0.629637
v 0.008114 0.717304 -0.647034
v 0.043678 0.673002 -0.500781
v 0.044960 0.665294 -0.503572
v 0.053885 0.666412 -0.503188
v 0.052158 0.673681 -0.499447
v 0.045692 0.045640 -0.110684
v 0.037002 0.052651 -0.095370
v 0.060340 0.044112 -0.102180
v 0.051843 0.048649 -0.087925
v 0.047649 0.131829 -0.126372
v 0.041481 0.133855 -0.119562
v 0.053728 0.135441 -0.121820
v 0.048080 0.136399 -0.114891
v 0.047691 0.075738 -0.113494
v 0.054616 0.077068 -0.109617
v 0.043055 0.079106 -0.106242
v 0.050134 0.079303 -0.102289
v 0.046087 0.298015 -0.299837
v 0.042453 0.303333 -0.294614
v 0.054254 0.301713 -0.297397
v 0.050288 0.306113 -0.291528
v -0.045692 0.045640 -0.110684
v -0.037002 0.052651 -0.095370
v -0.060340 0.044112 -0.102180
v -0.051843 0.048649 -0.087925
v -0.035103 0.132173 -0.126505
v -0.029154 0.134533 -0.119608
v -0.041522 0.134792 -0.121745
v -0.035964 0.136025 -0.114787
v -0.015504 0.192925 -0.153125
v -0.009712 0.195508 -0.146175
v -0.020660 0.199238 -0.151055
v -0.015689 0.201019 -0.143779
v 0.023358 0.240258 -0.192007
v 0.029969 0.242709 -0.185777
v 0.018931 0.247078 -0.189861
v 0.024694 0.248816 -0.183183
v -0.047701 0.075557 -0.113425
v -0.054608 0.076746 -0.109471
v -0.043090 0.079429 -0.106413
v -0.050099 0.079483 -0.102332
v 0.048326 0.270742 -0.250207
v 0.056415 0.273748 -0.246457
v 0.044249 0.276820 -0.246067
v 0.051784 0.278990 -0.241669
v 0.029140 0.333580 -0.340181
v 0.037384 0.337970 -0.339050
v 0.025948 0.338137 -0.333875
v 0.034083 0.341527 -0.332101
v -0.046358 0.415822 -0.386635
v -0.037877 0.419622 -0.385163
v -0.049279 0.419957 -0.379920
v -0.040963 0.422710 -0.377898
v -0.045892 0.578680 -0.410749
v -0.037734 0.578317 -0.406075
v -0.049779 0.580865 -0.403619
v -0.042212 0.579465 -0.398971
v 0.039428 0.684801 -0.447725
v 0.048109 0.685091 -0.444108
v 0.037561 0.691877 -0.443583
v 0.045461 0.691553 -0.439305
v -0.006300 0.719958 -0.602068
v 0.002632 0.721735 -0.604430
v -0.006489 0.727153 -0.597719
v 0.002324 0.728297 -0.599075
v -0.014918 0.768166 -0.648571
v 0.006881 0.769014 -0.647174
v -0.017103 0.777823 -0.631832
v 0.001995 0.779363 -0.628647
v -0.010547 0.644240 -0.391796
v -0.006984 0.640436 -0.397750
v -0.018281 0.645102 -0.396260
v -0.015404 0.640472 -0.401896
v -0.053159 0.500192 -0.405190
v -0.061132 0.499552 -0.408500
v -0.057041 0.502567 -0.398123
v -0.064530 0.502886 -0.401632
v -0.009114 0.368946 -0.371019
v -0.012381 0.373188 -0.364545
v -0.001255 0.373989 -0.370194
v -0.004521 0.377227 -0.363083
v 0.037334 0.692138 -0.527001
v 0.036643 0.700249 -0.525136
v 0.046300 0.693498 -0.529210
v 0.045431 0.701320 -0.526203
v 0.002860 0.744506 -0.605771
v 0.007504 0.731302 -0.625421
v -0.016997 0.742737 -0.606745
v -0.012870 0.730658 -0.624142
vn 0.9714 -0.2362 -0.0242
vn 0.9466 -0.0992 -0.3067
vn 0.3155 0.8372 0.4467
vn 0.2946 0.8219 0.4876
vn -0.9330 0.1222 0.3384
vn -0.9514 0.3037 0.0512
vn -0.2033 -0.8444 -0.4956
vn -0.2007 -0.8523 -0.4830
vn 0.9997 -0.0078 -0.0240
vn 0.9855 -0.1463 0.0861
vn 0.0925 0.7704 0.6308
vn 0.0566 0.5993 0.7985
vn -0.9509 0.3091 -0.0164
vn -0.2219 -0.7693 -0.5991
vn -0.9855 0.0768 0.1510
vn -0.1525 -0.5750 -0.8038
vn 0.8282 0.0965 -0.5521
vn 0.2956 0.8259 0.4801
vn -0.7627 -0.2771 0.5843
vn -0.8648 -0.1306 0.4848
vn -0.4757 -0.5008 -0.7231
vn -0.3595 -0.6852 -0.6334
vn -0.8050 -0.1303 0.5787
vn -0.2188 -0.7917 -0.5703
vn -0.3700 -0.1875 -0.9099
vn -0.3274 0.1065 -0.9389
vn 0.9532 -0.1509 -0.2619
vn 0.8881 0.0319 -0.4586
vn 0.8207 0.1333 -0.5557
vn 0.7208 0.2009 -0.6634
vn 0.3280 0.4450 0.8333
vn 0.3084 0.6656 0.6796
vn 0.7521 -0.6486 0.1170
vn 0.8320 -0.4989 0.2427
vn 0.5558 0.5950 0.5805
vn 0.0955 0.2537 0.9625
vn 0.1007 -0.0875 0.9911
vn 0.3282 0.1675 0.9296
vn -0.9616 0.1791 0.2079
vn -0.9648 -0.0508 0.2580
vn -0.7659 0.5122 0.3885
vn -0.7210 0.2299 0.6537
vn -0.6130 -0.7704 -0.1755
vn -0.5894 -0.7970 -0.1317
vn -0.5007 0.8624 -0.0739
vn -0.7581 0.6392 0.1293
vn -0.4900 -0.7333 -0.4714
vn -0.3054 0.0198 -0.9520
vn 0.7293 -0.5311 -0.4313
vn 0.6389 0.2449 -0.7292
vn 0.4665 0.8427 0.2688
vn 0.5904 0.3873 0.7081
vn 0.6980 -0.6326 -0.3357
vn 0.7300 -0.5625 -0.3881
vn 0.7091 0.5026 0.4945
vn 0.6549 0.7491 0.1003
vn -0.6561 0.7491 0.0919
vn -0.5360 0.1612 -0.8287
vn -0.7890 0.1594 0.5933
vn -0.6043 -0.6494 -0.4617
vn 0.6518 0.7581 0.0217
vn -0.7913 0.6078 0.0665
vn 0.8086 -0.5830 -0.0791
vn -0.5319 -0.8468 -0.0050
vn 0.9678 0.0391 -0.2485
vn -0.2089 -0.1429 -0.9674
vn -0.1057 -0.3473 -0.9318
vn 0.9943 0.0478 -0.0958
vn -0.9687 0.1491 0.1984
vn -0.9740 0.0016 0.2266
vn 0.2762 0.3351 0.9008
vn 0.1766 0.3473 0.9210
vn 0.4374 0.4116 0.7995
vn 0.9661 0.1163 -0.2304
vn -0.8889 0.3212 0.3265
vn -0.1461 -0.0867 -0.9855
vn 0.9647 -0.2624 0.0237
vn 0.9451 -0.1468 -0.2920
vn 0.3254 0.8124 0.4840
vn 0.3199 0.8021 0.5043
vn -0.9469 0.1185 0.2988
vn -0.9359 0.3523 -0.0037
vn -0.2269 -0.8169 -0.5302
vn -0.1836 -0.8576 -0.4804
vn -0.9548 0.1308 -0.2669
vn -0.9615 0.2036 -0.1846
vn 0.1425 -0.3454 -0.9276
vn 0.1763 -0.1455 -0.9735
vn -0.9081 0.3397 -0.2450
vn 0.0220 -0.5173 -0.8555
vn 0.9449 -0.1714 0.2790
vn 0.9685 0.0286 0.2474
vn -0.1703 0.3457 0.9228
vn -0.3138 0.3652 0.8765
vn 0.8907 -0.2688 0.3667
vn 0.8868 -0.3115 0.3413
vn 0.1203 0.7307 0.6720
vn -0.1442 0.5697 0.8091
vn -0.8568 0.4655 -0.2218
vn -0.0826 -0.7531 -0.6527
vn -0.4372 0.4121 0.7994
vn -0.9659 0.1176 -0.2306
vn 0.8901 0.3202 0.3243
vn 0.1432 -0.0856 -0.9860
vn 0.8462 0.1020 -0.5229
vn 0.3286 0.7896 0.5183
vn -0.7209 -0.3264 0.6113
vn -0.8545 -0.1954 0.4813
vn -0.4957 -0.4898 -0.7172
vn -0.3417 -0.6765 -0.6524
vn -0.8173 -0.0927 0.5688
vn -0.2260 -0.7610 -0.6081
vn -0.4226 -0.1563 -0.8927
vn -0.2664 0.1255 -0.9556
vn 0.9123 -0.2902 -0.2888
vn 0.9021 -0.0598 -0.4273
vn 0.7689 0.2021 -0.6066
vn 0.6932 0.2396 -0.6797
vn 0.3251 0.3789 0.8665
vn 0.3213 0.6852 0.6537
vn 0.7850 -0.6118 0.0970
vn 0.8699 -0.4886 0.0667
vn 0.5701 0.5951 0.5664
vn 0.1846 0.2384 0.9535
vn 0.1518 -0.0945 0.9839
vn 0.2657 0.1226 0.9562
vn -0.9299 0.3143 0.1913
vn -0.9592 0.0791 0.2712
vn -0.7250 0.5918 0.3524
vn -0.7173 0.1676 0.6763
vn -0.5852 -0.8083 -0.0645
vn -0.5088 -0.8592 -0.0527
vn -0.6024 0.7966 0.0504
vn -0.7873 0.5676 0.2407
vn -0.5039 -0.7330 -0.4569
vn -0.3080 0.0140 -0.9513
vn 0.6545 -0.6615 -0.3661
vn 0.7898 -0.5069 -0.3453
vn 0.6851 0.6118 0.3954
vn 0.6549 0.7557 0.0012
vt 0.177907 0.306825
vt 0.177907 0.306825
vt 0.166144 0.305563
vt 0.166144 0.305563
vt 0.163455 0.193345
vt 0.163455 0.193345
vt 0.180447 0.192164
vt 0.180447 0.192164
vt 0.163455 0.193345
vt 0.180447 0.192164
vt 0.177907 0.306825
vt 0.177907 0.306825
vt 0.166144 0.305563
vt 0.163455 0.193345
vt 0.180447 0.192164
vt 0.177907 0.306825
vt 0.166144 0.305563
vt 0.163455 0.193345
vt 0.166144 0.305563
vt 0.180447 0.192164
vt 0.163467 0.193464
vt 0.180434 0.192313
vt 0.177862 0.306654
vt 0.166197 0.305569
s 1
f 14/1/1 3/2/2 4/3/3 16/4/4
f 16/4/4 4/3/3 2/5/5 15/6/6
f 15/6/6 2/5/5 1/7/7 13/8/8
f 13/8/8 1/7/7 3/2/2 14/1/1
f 6/1/9 10/1/10 12/4/11 8/4/12
f 11/6/13 15/6/6 13/8/8 9/8/14
f 8/4/12 12/4/11 11/6/13 7/6/15
f 7/6/15 11/6/13 9/8/14 5/8/16
f 5/8/16 9/8/14 10/1/10 6/1/9
f 3/2/2 18/1/17 20/4/18 4/3/3
f 9/8/14 13/8/8 14/1/1 10/1/10
f 10/1/10 14/1/1 16/4/4 12/4/11
f 12/4/11 16/4/4 15/6/6 11/6/13
f 50/9/19 23/6/20 21/8/21 49/8/22
f 4/3/3 20/4/18 19/6/23 2/5/5
f 2/5/5 19/6/23 17/8/24 1/7/7
f 1/7/7 17/8/24 18/1/17 3/2/2
f 46/10/25 25/8/26 26/1/27 45/1/28
f 49/8/22 21/8/21 22/1/29 51/11/30
f 51/11/30 22/1/29 24/4/31 52/3/32
f 52/3/32 24/4/31 23/6/20 50/9/19
f 42/12/33 30/1/34 32/4/35 41/13/36
f 45/1/28 26/1/27 28/4/37 47/4/38
f 47/4/38 28/4/37 27/6/39 48/14/40
f 48/14/40 27/6/39 25/8/26 46/10/25
f 54/6/41 35/6/42 33/8/43 53/8/44
f 41/13/36 32/4/35 31/6/45 43/5/46
f 43/5/46 31/6/45 29/8/47 44/15/48
f 44/15/48 29/8/47 30/1/34 42/12/33
f 58/16/49 38/1/50 40/4/51 57/4/52
f 53/8/44 33/8/43 34/1/53 55/1/54
f 55/1/54 34/1/53 36/4/55 56/17/56
f 56/17/56 36/4/55 35/6/42 54/6/41
f 39/6/57 40/4/51 38/1/50 37/8/58
f 57/4/52 40/4/51 39/6/57 59/18/59
f 59/18/59 39/6/57 37/8/58 60/8/60
f 60/8/60 37/8/58 38/1/50 58/16/49
f 25/8/26 44/15/48 42/12/33 26/1/27
f 27/6/39 43/5/46 44/15/48 25/8/26
f 28/4/37 41/13/36 43/5/46 27/6/39
f 26/1/27 42/12/33 41/13/36 28/4/37
f 23/6/20 48/14/40 46/10/25 21/8/21
f 24/4/31 47/4/38 48/14/40 23/6/20
f 22/1/29 45/1/28 47/4/38 24/4/31
f 21/8/21 46/10/25 45/1/28 22/1/29
f 20/4/18 52/3/32 50/9/19 19/6/23
f 18/1/17 51/11/30 52/3/32 20/4/18
f 17/8/24 49/8/22 51/11/30 18/1/17
f 19/6/23 50/9/19 49/8/22 17/8/24
f 64/19/61 56/17/56 54/6/41 61/18/62
f 63/11/63 55/1/54 56/17/56 64/19/61
f 62/20/64 53/8/44 55/1/54 63/11/63
f 61/18/62 54/6/41 53/8/44 62/20/64
f 33/8/43 60/8/60 58/16/49 34/1/53
f 35/6/42 59/18/59 60/8/60 33/8/43
f 36/4/55 57/4/52 59/18/59 35/6/42
f 34/1/53 58/16/49 57/4/52 36/4/55
f 31/6/45 61/18/62 62/20/64 29/8/47
f 29/8/47 62/20/64 63/11/63 30/1/34
f 30/1/34 63/11/63 64/19/61 32/4/35
f 32/4/35 64/19/61 61/18/62 31/6/45
f 74/21/65 73/22/66 69/8/67 71/6/68
f 71/6/68 69/8/67 5/8/16 6/6/9
f 73/22/66 75/23/69 70/1/70 69/8/67
f 75/23/69 76/24/71 72/4/72 70/1/70
f 76/24/71 74/21/65 71/6/68 72/4/72
f 69/8/67 70/1/70 7/1/15 5/8/16
f 70/1/70 72/4/72 8/4/12 7/1/15
f 72/4/72 71/6/68 6/6/9 8/4/12
f 68/4/73 67/6/74 74/21/65 76/24/71
f 66/1/75 68/4/73 76/24/71 75/23/69
f 65/8/76 66/1/75 75/23/69 73/22/66
f 67/6/74 65/8/76 73/22/66 74/21/65
f 102/1/77 79/2/78 80/3/79 104/4/80
f 104/4/80 80/3/79 78/5/81 103/6/82
f 103/6/82 78/5/81 77/7/83 101/8/84
f 101/8/84 77/7/83 79/2/78 102/1/77
f 98/21/85 87/6/86 85/8/87 97/22/88
f 87/6/86 91/6/89 89/8/90 85/8/87
f 97/22/88 85/8/87 86/1/91 99/23/92
f 99/23/92 86/1/91 88/4/93 100/24/94
f 100/24/94 88/4/93 87/6/86 98/21/85
f 90/1/95 94/1/96 96/4/97 92/4/98
f 85/8/87 89/8/90 90/1/95 86/1/91
f 86/1/91 90/1/95 92/4/98 88/4/93
f 88/4/93 92/4/98 91/6/89 87/6/86
f 95/6/99 103/6/82 101/8/84 93/8/100
f 92/4/98 96/4/97 95/6/99 91/6/89
f 91/6/89 95/6/99 93/8/100 89/8/90
f 89/8/90 93/8/100 94/1/96 90/1/95
f 84/4/101 100/24/94 98/21/85 83/6/102
f 82/1/103 99/23/92 100/24/94 84/4/101
f 81/8/104 97/22/88 99/23/92 82/1/103
f 83/6/102 98/21/85 97/22/88 81/8/104
f 79/2/78 106/1/105 108/4/106 80/3/79
f 93/8/100 101/8/84 102/1/77 94/1/96
f 94/1/96 102/1/77 104/4/80 96/4/97
f 96/4/97 104/4/80 103/6/82 95/6/99
f 138/9/107 111/6/108 109/8/109 137/8/110
f 80/3/79 108/4/106 107/6/111 78/5/81
f 78/5/81 107/6/111 105/8/112 77/7/83
f 77/7/83 105/8/112 106/1/105 79/2/78
f 134/10/113 113/8/114 114/1/115 133/1/116
f 137/8/110 109/8/109 110/1/117 139/11/118
f 139/11/118 110/1/117 112/4/119 140/3/120
f 140/3/120 112/4/119 111/6/108 138/9/107
f 130/12/121 118/1/122 120/4/123 129/13/124
f 133/1/116 114/1/115 116/4/125 135/4/126
f 135/4/126 116/4/125 115/6/127 136/14/128
f 136/14/128 115/6/127 113/8/114 134/10/113
f 142/6/129 123/6/130 121/8/131 141/8/132
f 129/13/124 120/4/123 119/6/133 131/5/134
f 131/5/134 119/6/133 117/8/135 132/15/136
f 132/15/136 117/8/135 118/1/122 130/12/121
f 146/16/49 126/1/50 128/4/51 145/4/52
f 141/8/132 121/8/131 122/1/137 143/1/138
f 143/1/138 122/1/137 124/4/139 144/17/140
f 144/17/140 124/4/139 123/6/130 142/6/129
f 127/6/57 128/4/51 126/1/50 125/8/58
f 145/4/52 128/4/51 127/6/57 147/18/59
f 147/18/59 127/6/57 125/8/58 148/8/60
f 148/8/60 125/8/58 126/1/50 146/16/49
f 113/8/114 132/15/136 130/12/121 114/1/115
f 115/6/127 131/5/134 132/15/136 113/8/114
f 116/4/125 129/13/124 131/5/134 115/6/127
f 114/1/115 130/12/121 129/13/124 116/4/125
f 111/6/108 136/14/128 134/10/113 109/8/109
f 112/4/119 135/4/126 136/14/128 111/6/108
f 110/1/117 133/1/116 135/4/126 112/4/119
f 109/8/109 134/10/113 133/1/116 110/1/117
f 108/4/106 140/3/120 138/9/107 107/6/111
f 106/1/105 139/11/118 140/3/120 108/4/106
f 105/8/112 137/8/110 139/11/118 106/1/105
f 107/6/111 138/9/107 137/8/110 105/8/112
f 120/4/123 144/17/140 142/6/129 119/6/133
f 118/1/122 143/1/138 144/17/140 120/4/123
f 117/8/135 141/8/132 143/1/138 118/1/122
f 119/6/133 142/6/129 141/8/132 117/8/135
f 121/8/131 148/8/60 146/16/49 122/1/137
f 123/6/130 147/18/59 148/8/60 121/8/131
f 124/4/139 145/4/52 147/18/59 123/6/130
f 122/1/137 146/16/49 145/4/52 124/4/139
