# Blender 4.0.2
# www.blender.org
o Dighole
v -0.692214 0.000000 0.716300
v 0.678832 0.000000 0.700907
v -0.674982 0.000000 -0.685547
v 0.656236 0.002187 -0.779481
v -0.705462 0.004299 -0.507075
v -0.833577 0.008725 -0.361656
v -0.754815 0.006241 -0.178333
v -0.851163 0.005212 0.010789
v -0.881690 0.006330 0.182954
v -0.781265 0.004747 0.360789
v -0.756987 0.001513 0.522784
v -0.520973 0.000912 0.811491
v -0.365913 0.003659 0.834500
v -0.189903 0.006550 0.783224
v 0.004395 0.008491 0.762456
v 0.189123 0.007972 0.884047
v 0.355202 0.006690 0.837722
v 0.491070 0.003954 0.704454
v 0.759757 0.006441 0.515874
v 0.917403 0.011606 0.385004
v 0.883739 0.007901 0.190977
v 0.809308 0.008414 0.002105
v 0.782922 0.007486 -0.192569
v 0.834861 0.005285 -0.365698
v 0.793492 0.003315 -0.597720
v 0.527100 0.003401 -0.820005
v 0.359539 0.006725 -0.771713
v 0.180972 0.005675 -0.946461
v -0.000577 0.003150 -0.896537
v -0.187134 0.003180 -0.959361
v -0.410820 0.004698 -0.907070
v -0.462250 0.003125 -0.705665
v -0.572023 0.000000 0.553036
v -0.393634 0.028784 0.643012
v -0.187817 0.100915 0.593804
v -0.020103 0.042360 0.656071
v 0.177194 0.093430 0.628700
v 0.404084 0.049563 0.625802
v 0.591010 0.000000 0.591010
v -0.636097 0.040282 0.393307
v -0.379746 0.077386 0.380714
v -0.209651 0.044289 0.462761
v -0.059335 0.000000 0.408492
v 0.215929 0.000000 0.450955
v 0.397650 0.004085 0.403030
v 0.682870 0.108227 0.405775
v -0.589841 0.087592 0.203803
v -0.439923 0.048558 0.215929
v -0.205678 0.073478 0.227368
v 0.000000 0.000000 0.262394
v 0.220791 0.026808 0.228679
v 0.484563 0.064990 0.238457
v 0.696958 0.080940 0.193999
v -0.679304 0.047747 -0.008139
v -0.381711 0.034303 -0.000000
v -0.256639 0.030043 0.000740
v -0.005307 0.041623 -0.010690
v 0.276635 0.000000 0.004747
v 0.498681 0.000000 0.033228
v 0.692820 0.067432 -0.023415
v -0.593147 0.030736 -0.183965
v -0.408467 0.092592 -0.225582
v -0.190665 0.030708 -0.289136
v -0.000000 0.000000 -0.328850
v 0.225559 0.000000 -0.225559
v 0.480894 0.065245 -0.222731
v 0.693040 0.044364 -0.207460
v -0.647239 0.066758 -0.387753
v -0.430556 0.000000 -0.430556
v -0.204815 0.062653 -0.517548
v -0.011628 0.041899 -0.438967
v 0.244056 0.076374 -0.394787
v 0.430556 0.000000 -0.430556
v 0.616397 0.066134 -0.402321
v -0.517434 0.000000 -0.574396
v -0.345608 0.036156 -0.573206
v -0.176812 0.055157 -0.672336
v -0.000000 0.000000 -0.758703
v 0.226745 0.053661 -0.681674
v 0.437214 0.080720 -0.594466
v 0.598157 0.021587 -0.593840
v -0.700474 -0.029668 0.726799
v 0.688253 -0.029668 0.708000
v -0.682513 -0.029668 -0.692211
v 0.665591 -0.029668 -0.788926
v -0.712936 -0.029668 -0.514078
v -0.839607 -0.029668 -0.367432
v -0.760645 -0.029668 -0.181818
v -0.861162 -0.029668 0.014860
v -0.891129 -0.029668 0.185622
v -0.789777 -0.029668 0.366182
v -0.765262 -0.029668 0.533240
v -0.530186 -0.029668 0.821460
v -0.375533 -0.029668 0.844159
v -0.196691 -0.029668 0.791215
v 0.007380 -0.029668 0.768513
v 0.195684 -0.029668 0.892723
v 0.357754 -0.029668 0.847933
v 0.498218 -0.029668 0.711589
v 0.769628 -0.029668 0.521936
v 0.924615 -0.029668 0.388582
v 0.893268 -0.029668 0.199047
v 0.816753 -0.029668 0.005545
v 0.789689 -0.029668 -0.197631
v 0.843560 -0.029668 -0.374763
v 0.802527 -0.029668 -0.607391
v 0.539507 -0.029668 -0.828367
v 0.364698 -0.029668 -0.777173
v 0.181806 -0.029668 -0.956635
v -0.001009 -0.029668 -0.906728
v -0.192191 -0.029668 -0.971104
v -0.411960 -0.029668 -0.919507
v -0.465116 -0.029668 -0.712770
v -0.708250 -0.029668 -0.719951
v -0.741138 -0.029668 -0.527383
v -0.874579 -0.029668 -0.372900
v -0.793786 -0.029668 -0.182982
v -0.889968 -0.029668 0.005215
v -0.922569 -0.029668 0.190982
v -0.818692 -0.029668 0.376041
v -0.794595 -0.029668 0.540243
v -0.725259 -0.029668 0.747390
v -0.539981 -0.029668 0.850384
v -0.373349 -0.029668 0.874841
v -0.190721 -0.029668 0.820776
v -0.000094 -0.029668 0.799569
v 0.190534 -0.029668 0.925312
v 0.373162 -0.029668 0.874841
v 0.510636 -0.029668 0.741400
v 0.708063 -0.029668 0.737671
v 0.794408 -0.029668 0.540243
v 0.957007 -0.029668 0.400340
v 0.922382 -0.029668 0.190982
v 0.846043 -0.029668 -0.002074
v 0.820327 -0.029668 -0.195131
v 0.874392 -0.029668 -0.372900
v 0.830856 -0.029668 -0.619718
v 0.683765 -0.029668 -0.814716
v 0.539794 -0.029668 -0.859753
v 0.373162 -0.029668 -0.810953
v 0.190534 -0.029668 -0.990156
v -0.000094 -0.029668 -0.938116
v -0.190721 -0.029668 -1.002306
v -0.436526 -0.029668 -0.944596
v -0.488954 -0.029668 -0.740689
v -0.691703 0.000000 -0.703570
v -0.723827 0.000000 -0.515477
v -0.854167 0.000000 -0.364583
v -0.775251 0.000000 -0.179078
v -0.869198 0.000000 0.004747
v -0.901042 0.000000 0.186198
v -0.799578 0.000000 0.366957
v -0.776042 0.000000 0.527344
v -0.708317 0.000000 0.729678
v -0.527344 0.000000 0.830279
v -0.364583 0.000000 0.854167
v -0.186198 0.000000 0.801358
v -0.000000 0.000000 0.780645
v 0.186198 0.000000 0.903466
v 0.364583 0.000000 0.854167
v 0.498863 0.000000 0.723827
v 0.691703 0.000000 0.720184
v 0.776042 0.000000 0.527344
v 0.934863 0.000000 0.390691
v 0.901042 0.000000 0.186198
v 0.826477 0.000000 -0.002373
v 0.801358 0.000000 -0.190945
v 0.854167 0.000000 -0.364583
v 0.811643 0.000000 -0.605666
v 0.667969 0.000000 -0.796133
v 0.527344 0.000000 -0.840124
v 0.364583 0.000000 -0.792458
v 0.186198 0.000000 -0.967497
v 0.000000 0.000000 -0.916667
v -0.186198 0.000000 -0.979364
v -0.426292 0.000000 -0.922996
v -0.477502 0.000000 -0.723827
vn -0.1095 0.9862 0.1243
vn -0.1255 0.9810 0.1477
vn -0.0542 0.9968 0.0594
vn -0.1537 0.9756 0.1568
vn 0.0736 0.9963 0.0445
vn 0.1267 0.9897 -0.0673
vn 0.0158 0.9959 0.0893
vn 0.1565 0.9854 -0.0671
vn -0.0303 0.9994 -0.0154
vn -0.0355 0.9918 -0.1231
vn 0.1098 0.9906 0.0816
vn -0.0829 0.9957 0.0405
vn 0.0346 0.9893 0.1419
vn 0.1083 0.9765 0.1863
vn 0.0284 0.9983 -0.0507
vn -0.0669 0.9978 -0.0036
vn 0.1088 0.9941 -0.0054
vn 0.0882 0.9947 0.0526
vn -0.0349 0.9990 0.0273
vn -0.1660 0.9849 -0.0495
vn 0.0873 0.9910 -0.1011
vn 0.0470 0.9988 -0.0121
vn -0.1421 0.9869 -0.0769
vn 0.0833 0.9964 -0.0183
vn 0.0759 0.9965 -0.0347
vn -0.0327 0.9992 -0.0229
vn -0.1435 0.9880 -0.0575
vn 0.1339 0.9891 -0.0615
vn 0.0226 0.9997 -0.0084
vn -0.1219 0.9925 0.0091
vn 0.0607 0.9981 0.0118
vn -0.0056 0.9878 0.1554
vn -0.0270 0.9957 0.0891
vn -0.0876 0.9951 0.0459
vn 0.1597 0.9872 0.0026
vn -0.0116 0.9964 -0.0845
vn -0.1365 0.9825 -0.1270
vn 0.0022 1.0000 -0.0076
vn -0.0063 0.9943 0.1060
vn -0.0501 0.9919 0.1166
vn 0.0089 0.9985 0.0547
vn 0.0672 0.9970 -0.0376
vn -0.1348 0.9903 -0.0347
vn -0.0396 0.9970 -0.0663
vn 0.0392 0.9953 -0.0890
vn 0.0091 0.9946 -0.1031
vn -0.0058 0.9914 -0.1307
vn 0.0894 0.9942 -0.0599
vn 0.0916 0.9918 -0.0886
vn -0.0144 0.9998 0.0111
vn -0.0469 0.9971 0.0601
vn -0.0903 0.9939 0.0637
vn -0.0371 0.9811 0.1899
vn 0.0164 0.9432 0.3320
vn -0.0917 0.9282 0.3607
vn -0.0414 0.9401 0.3385
vn 0.1604 0.9488 0.2720
vn 0.1743 0.9695 0.1725
vn 0.0491 0.9970 0.0603
vn 0.2355 0.9095 0.3427
vn 0.3875 0.9122 0.1331
vn 0.4134 0.9039 -0.1099
vn 0.4065 0.9080 -0.1018
vn 0.3656 0.9307 -0.0101
vn 0.2600 0.9656 -0.0062
vn 0.1587 0.9835 -0.0866
vn 0.0749 0.9922 -0.0995
vn 0.0422 0.9797 -0.1957
vn 0.1164 0.9553 -0.2717
vn 0.0349 0.9785 -0.2031
vn 0.0021 0.9902 -0.1395
vn 0.0101 0.9882 -0.1529
vn -0.1202 0.9858 -0.1175
vn -0.1409 0.9889 -0.0475
vn -0.1667 0.9633 -0.2104
vn -0.0399 0.9985 -0.0372
vn -0.2783 0.9598 -0.0357
vn -0.2477 0.9688 0.0089
vn -0.2595 0.9613 -0.0925
vn -0.2682 0.9626 0.0390
vn -0.2148 0.9676 0.1324
vn 0.1092 0.7905 0.6026
vn 0.0666 0.8077 0.5858
vn 0.0333 -0.4223 0.9059
vn 0.1816 -0.5125 0.8393
vn -0.0361 0.7916 -0.6099
vn 0.3060 0.8415 -0.4452
vn 0.5419 -0.3719 -0.7537
vn 0.0569 -0.4090 -0.9107
vn -0.1381 0.7966 0.5886
vn -0.2141 -0.5898 0.7787
vn 0.1398 0.8726 -0.4679
vn 0.1508 -0.6459 -0.7484
vn -0.1423 0.7451 0.6516
vn -0.1030 -0.3825 0.9182
vn 0.1696 0.7912 -0.5876
vn 0.2264 -0.3561 -0.9066
vn 0.3084 0.7886 0.5319
vn 0.4472 -0.3991 0.8004
vn -0.4472 0.8599 -0.2462
vn -0.3906 0.8141 -0.4297
vn -0.6445 -0.3413 -0.6842
vn -0.7688 -0.5383 -0.3454
vn 0.0050 0.8755 -0.4832
vn 0.0282 -0.5383 -0.8423
vn 0.2115 0.8839 0.4171
vn 0.2895 -0.5754 0.7649
vn -0.6496 0.7577 -0.0617
vn -0.9145 -0.3640 -0.1769
vn 0.0397 0.8246 -0.5643
vn 0.0227 -0.3895 -0.9207
vn 0.3029 0.8157 0.4928
vn 0.5418 -0.3455 0.7662
vn -0.5486 0.8360 -0.0110
vn -0.7839 -0.6208 -0.0027
vn -0.4602 0.7944 -0.3964
vn -0.6183 -0.3539 -0.7018
vn 0.4266 0.8336 0.3508
vn 0.6930 -0.5049 0.5145
vn -0.5850 0.7844 -0.2060
vn -0.8557 -0.4413 -0.2702
vn -0.2663 0.9244 -0.2730
vn -0.4944 -0.6797 -0.5419
vn 0.6203 0.7555 0.2109
vn 0.8780 -0.3484 0.3283
vn -0.6039 0.7910 0.0983
vn -0.9081 -0.3870 0.1599
vn 0.6543 0.7318 -0.1908
vn 0.8640 -0.4517 -0.2225
vn -0.4921 0.8513 0.1821
vn -0.8181 -0.5072 0.2711
vn 0.6213 0.7675 -0.1577
vn 0.8280 -0.5132 -0.2262
vn -0.5079 0.8536 0.1157
vn -0.8714 -0.4388 0.2191
vn 0.6080 0.7932 0.0339
vn 0.8344 -0.5439 0.0886
vn -0.4021 0.8583 0.3189
vn -0.7084 -0.3631 0.6053
vn 0.6207 0.7815 0.0627
vn 0.9061 -0.4224 0.0233
vn -0.1526 0.8623 0.4829
vn -0.3068 -0.4023 0.8626
vn 0.5136 0.8324 -0.2082
vn 0.8369 -0.3918 -0.3823
vn -0.0000 -1.0000 -0.0000
vt 0.183399 0.154100
vt 0.248091 0.121471
vt 0.253128 0.216592
vt 0.160163 0.212025
vt 0.322730 0.139316
vt 0.314812 0.186838
vt 0.383550 0.116735
vt 0.369323 0.206518
vt 0.455099 0.126661
vt 0.469146 0.191119
vt 0.537380 0.127712
vt 0.535047 0.208499
vt 0.605168 0.140329
vt 0.638480 0.207504
vt 0.231305 0.276350
vt 0.176938 0.280748
vt 0.316253 0.272202
vt 0.390841 0.259500
vt 0.472638 0.272858
vt 0.566565 0.268181
vt 0.643589 0.284303
vt 0.252415 0.354656
vt 0.144495 0.357608
vt 0.297772 0.354388
vt 0.390841 0.354656
vt 0.491161 0.352934
vt 0.571685 0.342606
vt 0.642088 0.363147
vt 0.242712 0.436462
vt 0.175739 0.421370
vt 0.320232 0.457971
vt 0.390841 0.473912
vt 0.472638 0.436454
vt 0.565234 0.435428
vt 0.642168 0.429890
vt 0.234702 0.510795
vt 0.156123 0.495273
vt 0.316566 0.542342
vt 0.386624 0.513845
vt 0.479346 0.497823
vt 0.546980 0.510795
vt 0.614374 0.500556
vt 0.265508 0.562526
vt 0.203196 0.562958
vt 0.326721 0.598475
vt 0.390841 0.629796
vt 0.473069 0.601862
vt 0.549394 0.570236
vt 0.607759 0.570009
vt 0.139813 0.094893
vt 0.201912 0.060373
vt 0.116323 0.165071
vt 0.258144 0.052029
vt 0.321973 0.070624
vt 0.392435 0.078155
vt 0.459425 0.034060
vt 0.519653 0.050860
vt 0.568925 0.099189
vt 0.637016 0.100476
vt 0.666363 0.167577
vt 0.723532 0.215036
vt 0.711325 0.285399
vt 0.684332 0.353892
vt 0.674764 0.424490
vt 0.693599 0.487275
vt 0.678597 0.571416
vt 0.628822 0.637331
vt 0.581991 0.652027
vt 0.521226 0.634514
vt 0.456469 0.697885
vt 0.390632 0.679781
vt 0.322978 0.702564
vt 0.241859 0.683600
vt 0.223208 0.610562
vt 0.135008 0.538544
vt 0.146062 0.603266
vt 0.088548 0.485809
vt 0.117111 0.419328
vt 0.082171 0.350743
vt 0.071100 0.288309
vt 0.107519 0.223817
vt 0.323317 0.064047
vt 0.258626 0.044896
vt 0.255447 0.037399
vt 0.321677 0.057005
vt 0.582079 0.659323
vt 0.633076 0.643370
vt 0.638804 0.650109
vt 0.586595 0.666441
vt 0.390841 0.071559
vt 0.390807 0.064696
vt 0.523055 0.642037
vt 0.526166 0.648744
vt 0.458364 0.027018
vt 0.459937 0.019096
vt 0.458364 0.705514
vt 0.459937 0.713731
vt 0.523055 0.044896
vt 0.526166 0.037399
vt 0.128349 0.541591
vt 0.139998 0.609802
vt 0.133997 0.615742
vt 0.122071 0.545909
vt 0.390841 0.687081
vt 0.390807 0.694859
vt 0.571751 0.092164
vt 0.576020 0.085791
vt 0.081081 0.486870
vt 0.073679 0.489886
vt 0.323317 0.709818
vt 0.321677 0.718137
vt 0.641683 0.093485
vt 0.647616 0.087143
vt 0.109700 0.419598
vt 0.102978 0.421013
vt 0.236248 0.689376
vt 0.232537 0.697209
vt 0.672268 0.163417
vt 0.678929 0.158739
vt 0.075630 0.352934
vt 0.068098 0.352765
vt 0.217677 0.617148
vt 0.213524 0.623263
vt 0.729864 0.212974
vt 0.737895 0.209475
vt 0.064082 0.287132
vt 0.056276 0.285397
vt 0.717599 0.287132
vt 0.725338 0.285397
vt 0.100878 0.221581
vt 0.093946 0.218286
vt 0.690558 0.355517
vt 0.697654 0.355408
vt 0.109413 0.163417
vt 0.102685 0.158739
vt 0.681449 0.423901
vt 0.688328 0.425419
vt 0.133973 0.090042
vt 0.127829 0.083619
vt 0.700600 0.486870
vt 0.707934 0.489886
vt 0.199602 0.053559
vt 0.195019 0.046268
vt 0.685179 0.574298
vt 0.692147 0.579394
vt 0.000000 0.000000
s 1
f 33/1/1 34/2/2 41/3/3 40/4/4
f 34/2/2 35/5/5 42/6/6 41/3/3
f 35/5/5 36/7/7 43/8/8 42/6/6
f 36/7/7 37/9/9 44/10/10 43/8/8
f 37/9/9 38/11/11 45/12/12 44/10/10
f 38/11/11 39/13/13 46/14/14 45/12/12
f 40/4/4 41/3/3 48/15/15 47/16/16
f 41/3/3 42/6/6 49/17/17 48/15/15
f 42/6/6 43/8/8 50/18/18 49/17/17
f 43/8/8 44/10/10 51/19/19 50/18/18
f 44/10/10 45/12/12 52/20/20 51/19/19
f 45/12/12 46/14/14 53/21/21 52/20/20
f 47/16/16 48/15/15 55/22/22 54/23/23
f 48/15/15 49/17/17 56/24/24 55/22/22
f 49/17/17 50/18/18 57/25/25 56/24/24
f 50/18/18 51/19/19 58/26/26 57/25/25
f 51/19/19 52/20/20 59/27/27 58/26/26
f 52/20/20 53/21/21 60/28/28 59/27/27
f 54/23/23 55/22/22 62/29/29 61/30/30
f 55/22/22 56/24/24 63/31/31 62/29/29
f 56/24/24 57/25/25 64/32/32 63/31/31
f 57/25/25 58/26/26 65/33/33 64/32/32
f 58/26/26 59/27/27 66/34/34 65/33/33
f 59/27/27 60/28/28 67/35/35 66/34/34
f 61/30/30 62/29/29 69/36/36 68/37/37
f 62/29/29 63/31/31 70/38/38 69/36/36
f 63/31/31 64/32/32 71/39/39 70/38/38
f 64/32/32 65/33/33 72/40/40 71/39/39
f 65/33/33 66/34/34 73/41/41 72/40/40
f 66/34/34 67/35/35 74/42/42 73/41/41
f 68/37/37 69/36/36 76/43/43 75/44/44
f 69/36/36 70/38/38 77/45/45 76/43/43
f 70/38/38 71/39/39 78/46/46 77/45/45
f 71/39/39 72/40/40 79/47/47 78/46/46
f 72/40/40 73/41/41 80/48/48 79/47/47
f 73/41/41 74/42/42 81/49/49 80/48/48
f 1/50/50 12/51/51 33/1/1 11/52/52
f 12/51/51 13/53/53 34/2/2 33/1/1
f 13/53/53 14/54/54 35/5/5 34/2/2
f 14/54/54 15/55/55 36/7/7 35/5/5
f 15/55/55 16/56/56 37/9/9 36/7/7
f 16/56/56 17/57/57 38/11/11 37/9/9
f 17/57/57 18/58/58 39/13/13 38/11/11
f 18/58/58 2/59/59 19/60/60 39/13/13
f 39/13/13 19/60/60 20/61/61 46/14/14
f 46/14/14 20/61/61 21/62/62 53/21/21
f 53/21/21 21/62/62 22/63/63 60/28/28
f 60/28/28 22/63/63 23/64/64 67/35/35
f 67/35/35 23/64/64 24/65/65 74/42/42
f 74/42/42 24/65/65 25/66/66 81/49/49
f 81/49/49 25/66/66 4/67/67 26/68/68
f 80/48/48 81/49/49 26/68/68 27/69/69
f 79/47/47 80/48/48 27/69/69 28/70/70
f 78/46/46 79/47/47 28/70/70 29/71/71
f 77/45/45 78/46/46 29/71/71 30/72/72
f 76/43/43 77/45/45 30/72/72 31/73/73
f 75/44/44 76/43/43 31/73/73 32/74/74
f 5/75/75 75/44/44 32/74/74 3/76/76
f 6/77/77 68/37/37 75/44/44 5/75/75
f 7/78/78 61/30/30 68/37/37 6/77/77
f 8/79/79 54/23/23 61/30/30 7/78/78
f 9/80/80 47/16/16 54/23/23 8/79/79
f 10/81/81 40/4/4 47/16/16 9/80/80
f 11/52/52 33/1/1 40/4/4 10/81/81
f 157/82/82 156/83/83 124/84/84 125/85/85
f 171/86/86 170/87/87 138/88/88 139/89/89
f 158/90/90 157/82/82 125/85/85 126/91/91
f 172/92/92 171/86/86 139/89/89 140/93/93
f 159/94/94 158/90/90 126/91/91 127/95/95
f 173/96/96 172/92/92 140/93/93 141/97/97
f 160/98/98 159/94/94 127/95/95 128/99/99
f 147/100/100 146/101/101 114/102/102 115/103/103
f 174/104/104 173/96/96 141/97/97 142/105/105
f 161/106/106 160/98/98 128/99/99 129/107/107
f 148/108/108 147/100/100 115/103/103 116/109/109
f 175/110/110 174/104/104 142/105/105 143/111/111
f 162/112/112 161/106/106 129/107/107 130/113/113
f 149/114/114 148/108/108 116/109/109 117/115/115
f 176/116/116 175/110/110 143/111/111 144/117/117
f 163/118/118 162/112/112 130/113/113 131/119/119
f 150/120/120 149/114/114 117/115/115 118/121/121
f 177/122/122 176/116/116 144/117/117 145/123/123
f 164/124/124 163/118/118 131/119/119 132/125/125
f 151/126/126 150/120/120 118/121/121 119/127/127
f 146/101/101 177/122/122 145/123/123 114/102/102
f 165/128/128 164/124/124 132/125/125 133/129/129
f 152/130/130 151/126/126 119/127/127 120/131/131
f 166/132/132 165/128/128 133/129/129 134/133/133
f 153/134/134 152/130/130 120/131/131 121/135/135
f 167/136/136 166/132/132 134/133/133 135/137/137
f 154/138/138 153/134/134 121/135/135 122/139/139
f 168/140/140 167/136/136 135/137/137 136/141/141
f 155/142/142 154/138/138 122/139/139 123/143/143
f 169/144/144 168/140/140 136/141/141 137/145/145
f 156/83/83 155/142/142 123/143/143 124/84/84
f 170/87/87 169/144/144 137/145/145 138/88/88
f 110/146/146 113/146/146 111/146/146
f 108/146/146 110/146/146 109/146/146
f 96/146/146 91/146/146 88/146/146
f 108/146/146 113/146/146 110/146/146
f 85/146/146 108/146/146 107/146/146
f 106/146/146 108/146/146 85/146/146
f 106/146/146 105/146/146 108/146/146
f 105/146/146 104/146/146 108/146/146
f 88/146/146 113/146/146 108/146/146
f 96/146/146 88/146/146 104/146/146
f 104/146/146 88/146/146 108/146/146
f 86/146/146 113/146/146 88/146/146
f 87/146/146 86/146/146 88/146/146
f 103/146/146 96/146/146 104/146/146
f 92/146/146 95/146/146 94/146/146
f 103/146/146 100/146/146 99/146/146
f 91/146/146 89/146/146 88/146/146
f 101/146/146 100/146/146 102/146/146
f 91/146/146 90/146/146 89/146/146
f 103/146/146 102/146/146 100/146/146
f 91/146/146 96/146/146 95/146/146
f 83/146/146 99/146/146 100/146/146
f 113/146/146 112/146/146 111/146/146
f 96/146/146 103/146/146 99/146/146
f 98/146/146 96/146/146 99/146/146
f 92/146/146 91/146/146 95/146/146
f 82/146/146 92/146/146 93/146/146
f 98/146/146 97/146/146 96/146/146
f 93/146/146 92/146/146 94/146/146
f 86/146/146 84/146/146 113/146/146
f 84/146/146 86/146/146 115/146/103 114/146/102
f 86/146/146 87/146/146 116/146/109 115/146/103
f 87/146/146 88/146/146 117/146/115 116/146/109
f 88/146/146 89/146/146 118/146/121 117/146/115
f 89/146/146 90/146/146 119/146/127 118/146/121
f 90/146/146 91/146/146 120/146/131 119/146/127
f 91/146/146 92/146/146 121/146/135 120/146/131
f 92/146/146 82/146/146 122/146/139 121/146/135
f 82/146/146 93/146/146 123/146/143 122/146/139
f 93/146/146 94/146/146 124/146/84 123/146/143
f 94/146/146 95/146/146 125/146/85 124/146/84
f 95/146/146 96/146/146 126/146/91 125/146/85
f 96/146/146 97/146/146 127/146/95 126/146/91
f 97/146/146 98/146/146 128/146/99 127/146/95
f 98/146/146 99/146/146 129/146/107 128/146/99
f 99/146/146 83/146/146 130/146/113 129/146/107
f 83/146/146 100/146/146 131/146/119 130/146/113
f 100/146/146 101/146/146 132/146/125 131/146/119
f 101/146/146 102/146/146 133/146/129 132/146/125
f 102/146/146 103/146/146 134/146/133 133/146/129
f 103/146/146 104/146/146 135/146/137 134/146/133
f 104/146/146 105/146/146 136/146/141 135/146/137
f 105/146/146 106/146/146 137/146/145 136/146/141
f 106/146/146 85/146/146 138/146/88 137/146/145
f 85/146/146 107/146/146 139/146/89 138/146/88
f 107/146/146 108/146/146 140/146/93 139/146/89
f 108/146/146 109/146/146 141/146/97 140/146/93
f 109/146/146 110/146/146 142/146/105 141/146/97
f 110/146/146 111/146/146 143/146/111 142/146/105
f 111/146/146 112/146/146 144/146/117 143/146/111
f 112/146/146 113/146/146 145/146/123 144/146/117
f 113/146/146 84/146/146 114/146/102 145/146/123
f 5/75/75 3/76/76 146/101/101 147/100/100
f 6/77/77 5/75/75 147/100/100 148/108/108
f 7/78/78 6/77/77 148/108/108 149/114/114
f 8/79/79 7/78/78 149/114/114 150/120/120
f 9/80/80 8/79/79 150/120/120 151/126/126
f 10/81/81 9/80/80 151/126/126 152/130/130
f 11/52/52 10/81/81 152/130/130 153/134/134
f 1/50/50 11/52/52 153/134/134 154/138/138
f 12/51/51 1/50/50 154/138/138 155/142/142
f 13/53/53 12/51/51 155/142/142 156/83/83
f 14/54/54 13/53/53 156/83/83 157/82/82
f 15/55/55 14/54/54 157/82/82 158/90/90
f 16/56/56 15/55/55 158/90/90 159/94/94
f 17/57/57 16/56/56 159/94/94 160/98/98
f 18/58/58 17/57/57 160/98/98 161/106/106
f 2/59/59 18/58/58 161/106/106 162/112/112
f 19/60/60 2/59/59 162/112/112 163/118/118
f 20/61/61 19/60/60 163/118/118 164/124/124
f 21/62/62 20/61/61 164/124/124 165/128/128
f 22/63/63 21/62/62 165/128/128 166/132/132
f 23/64/64 22/63/63 166/132/132 167/136/136
f 24/65/65 23/64/64 167/136/136 168/140/140
f 25/66/66 24/65/65 168/140/140 169/144/144
f 4/67/67 25/66/66 169/144/144 170/87/87
f 26/68/68 4/67/67 170/87/87 171/86/86
f 27/69/69 26/68/68 171/86/86 172/92/92
f 28/70/70 27/69/69 172/92/92 173/96/96
f 29/71/71 28/70/70 173/96/96 174/104/104
f 30/72/72 29/71/71 174/104/104 175/110/110
f 31/73/73 30/72/72 175/110/110 176/116/116
f 32/74/74 31/73/73 176/116/116 177/122/122
f 3/76/76 32/74/74 177/122/122 146/101/101
