# Blender 4.0.2
# www.blender.org
o Magic_Eye
v 0.000000 0.018661 0.243574
v 0.000000 0.017712 0.289039
v 0.000000 0.036243 0.289039
v 0.000000 0.051921 0.243574
v 0.046787 0.018661 0.238894
v 0.055700 0.017712 0.283485
v 0.055700 0.036243 0.283485
v 0.046787 0.051921 0.238894
v 0.100592 0.017969 0.257062
v 0.093344 0.017712 0.272066
v 0.093344 0.036243 0.272066
v 0.100592 0.040488 0.257062
v 0.087356 0.018533 0.227377
v 0.087356 0.049798 0.227377
v -0.046787 0.018661 0.238894
v -0.055700 0.017712 0.283485
v -0.055700 0.036243 0.283485
v -0.046787 0.051921 0.238894
v -0.100592 0.017969 0.257062
v -0.093344 0.017712 0.272066
v -0.093344 0.036243 0.272066
v -0.100592 0.040488 0.257062
v -0.087356 0.018533 0.227377
v -0.087356 0.049798 0.227377
vn -0.0000 -0.0000 -1.0000
vn -0.1856 -0.0000 -0.9826
vn -0.1303 -0.7198 -0.6818
vn -0.0000 -0.7226 -0.6913
vn 0.1409 -0.6927 0.7073
vn -0.0000 -0.6925 0.7214
vn -0.0000 0.5638 0.8259
vn 0.1647 0.5680 0.8064
vn 0.0677 0.9486 0.3092
vn -0.0000 0.9454 0.3259
vn 0.3420 -0.5796 -0.7397
vn 0.7800 -0.6257 0.0042
vn 0.5046 -0.6344 0.5856
vn 0.3332 -0.0000 -0.9428
vn 0.5357 0.4997 0.6807
vn 0.8114 0.5701 0.1285
vn 0.1035 0.9509 0.2918
vn 0.1303 -0.7198 -0.6818
vn 0.1856 -0.0000 -0.9826
vn -0.1409 -0.6927 0.7073
vn -0.0677 0.9486 0.3092
vn -0.1647 0.5680 0.8064
vn -0.5046 -0.6344 0.5856
vn -0.7800 -0.6257 0.0042
vn -0.3420 -0.5796 -0.7397
vn -0.3332 -0.0000 -0.9428
vn -0.1035 0.9509 0.2918
vn -0.8114 0.5701 0.1285
vn -0.5357 0.4997 0.6807
vt 0.750000 0.333333
vt 0.781250 0.333333
vt 0.781250 0.666667
vt 0.750000 0.666667
vt 0.781250 0.833333
vt 0.750000 0.833333
vt 0.750000 0.166667
vt 0.781250 0.166667
vt 0.809727 0.711794
vt 0.809727 0.788206
vt 0.802945 0.833333
vt 0.801680 0.333333
vt 0.801680 0.666667
vt 0.802945 0.166667
vt 0.809727 0.211794
vt 0.801680 0.333333
vt 0.000000 0.000000
s 1
f 4/1/1 8/2/2 5/3/3 1/4/4
f 1/4/4 5/3/3 6/5/5 2/6/6
f 3/7/7 7/8/8 8/2/9 4/1/10
f 5/3/3 13/9/11 9/10/12 10/11/13 6/5/5
f 6/5/5 7/8/8 3/7/7 2/6/6
f 8/2/2 14/12/14 13/13/11 5/3/3
f 7/8/8 11/14/15 12/15/16 14/16/17 8/2/9
f 6/17/5 10/17/13 11/17/15 7/17/8
f 9/17/12 12/17/16 11/17/15 10/17/13
f 12/17/16 9/17/12 13/17/11 14/17/14
f 4/1/1 1/4/4 15/3/18 18/2/19
f 1/4/4 2/6/6 16/5/20 15/3/18
f 3/7/7 4/1/10 18/2/21 17/8/22
f 15/3/18 16/5/20 20/11/23 19/10/24 23/9/25
f 16/5/20 2/6/6 3/7/7 17/8/22
f 18/2/19 15/3/18 23/13/25 24/12/26
f 17/8/22 18/2/21 24/16/27 22/15/28 21/14/29
f 16/17/20 17/17/22 21/17/29 20/17/23
f 19/17/24 20/17/23 21/17/29 22/17/28
f 22/17/28 24/17/26 23/17/25 19/17/24
